<svg width="51" height="62" viewBox="0 0 51 62" fill="none" xmlns="http://www.w3.org/2000/svg">
<path d="M28.1068 41.7337L39.7702 34.9999L48.9525 53.0317L41.2262 53.1171L37.2891 59.7656L28.1068 41.7337Z" fill="url(#paint0_linear_834_442)" fill-opacity="0.5" stroke="#0943EC" stroke-width="2"/>
<path d="M21.2994 40.3169L8.55453 35.9638L2.24006 55.2314L9.83724 53.8221L14.9849 59.5845L21.2994 40.3169Z" fill="url(#paint1_linear_834_442)" fill-opacity="0.5" stroke="#0943EC" stroke-width="2"/>
<circle cx="24.3125" cy="21.7364" r="19.6309" stroke="#0943EC" stroke-width="3"/>
<path d="M33.1241 19.7132L33.1241 19.7132C33.1639 19.8362 33.1303 19.9708 33.0386 20.06L33.0384 20.0602L29.0946 23.9006L28.9057 24.0845L28.9507 24.3442L29.8909 29.7762L29.8923 29.7845L29.894 29.7927C29.9153 29.8951 29.8729 30.0143 29.7532 30.1017C29.6336 30.1889 29.5091 30.192 29.4195 30.1408L29.4124 30.1367L29.4052 30.1328L24.545 27.5573L24.3108 27.4332L24.0767 27.5573L19.2165 30.1328L19.2094 30.1366L19.2024 30.1406C19.1121 30.1922 18.9875 30.1887 18.8684 30.1017C18.7489 30.0146 18.7064 29.8953 18.7277 29.7925L18.7294 29.7844L18.7308 29.7762L19.6709 24.3442L19.7159 24.0845L19.5271 23.9006L15.5832 20.0602L15.5773 20.0545L15.5712 20.0489C15.4944 19.9788 15.4584 19.8573 15.5043 19.7153C15.5501 19.5736 15.6497 19.4972 15.7525 19.4859L15.7606 19.485L15.7687 19.4838L21.2098 18.702L21.4716 18.6644L21.5879 18.4269L24.0106 13.478L24.0141 13.4707L24.0175 13.4633C24.0605 13.3676 24.1641 13.2969 24.3109 13.2969C24.4576 13.2969 24.5612 13.3675 24.6043 13.4633L24.6076 13.4707L24.6112 13.478L27.0339 18.427L27.1502 18.6645L27.4119 18.7021L32.853 19.4839C32.8531 19.4839 32.8531 19.4839 32.8531 19.4839C32.9788 19.502 33.0843 19.5903 33.1241 19.7132ZM28.3127 23.7239L28.3128 23.7238L31.3531 20.7631L32.0809 20.0544L31.0753 19.9099L26.8806 19.3071C26.7716 19.2914 26.6766 19.2227 26.6275 19.1224C26.6275 19.1224 26.6275 19.1223 26.6275 19.1223L24.7598 15.3072L24.3107 14.3897L23.8616 15.3072L21.9939 19.1224L21.9939 19.1224C21.9448 19.2227 21.8499 19.2914 21.7408 19.3071L17.5461 19.9099L16.5405 20.0544L17.2683 20.7631L20.3087 23.7238L20.3088 23.7239C20.3884 23.8014 20.4251 23.9138 20.406 24.0243C20.406 24.0244 20.406 24.0244 20.406 24.0244L19.6812 28.212L19.5073 29.2165L20.4081 28.7391L24.1548 26.7536C24.1549 26.7536 24.1549 26.7536 24.1549 26.7536C24.2525 26.7019 24.3691 26.7019 24.4666 26.7536C24.4666 26.7536 24.4667 26.7536 24.4667 26.7536L28.2134 28.7391L29.1142 29.2165L28.9403 28.212L28.2156 24.0246C28.1965 23.9138 28.2332 23.8013 28.3127 23.7239Z" fill="url(#paint2_linear_834_442)" stroke="#0943EC" stroke-width="1.00013"/>
<defs>
<linearGradient id="paint0_linear_834_442" x1="46.9312" y1="64.7806" x2="33.0142" y2="42.3193" gradientUnits="userSpaceOnUse">
<stop stop-color="#B8C9E3" stop-opacity="0.7"/>
<stop offset="1" stop-color="white" stop-opacity="0.9"/>
</linearGradient>
<linearGradient id="paint1_linear_834_442" x1="10.3778" y1="58.0109" x2="16.6374" y2="40.8742" gradientUnits="userSpaceOnUse">
<stop stop-color="#B8C9E3" stop-opacity="0.7"/>
<stop offset="1" stop-color="white" stop-opacity="0.9"/>
</linearGradient>
<linearGradient id="paint2_linear_834_442" x1="33.6407" y1="30.6747" x2="33.6411" y2="12.7969" gradientUnits="userSpaceOnUse">
<stop stop-color="#E1DDDD"/>
<stop offset="1" stop-color="#DCDCDC" stop-opacity="0"/>
</linearGradient>
</defs>
</svg>
