<svg width="51" height="53" viewBox="0 0 51 53" fill="none" xmlns="http://www.w3.org/2000/svg">
<path d="M1.5 4C1.5 2.61929 2.61929 1.5 4 1.5H47C48.3807 1.5 49.5 2.61929 49.5 4V49C49.5 50.3807 48.3807 51.5 47 51.5H4C2.61929 51.5 1.5 50.3807 1.5 49V4Z" stroke="#0943EC" stroke-width="3"/>
<rect x="6.20508" y="15.3477" width="38.678" height="7.86071" rx="1" stroke="#0943EC" stroke-width="2"/>
<rect x="1" y="-1" width="16.4865" height="13.6194" rx="1" transform="matrix(1 0 0 -1 5.20508 43.832)" stroke="#0943EC" stroke-width="2"/>
<rect x="1" y="-1" width="16.4865" height="13.6194" rx="1" transform="matrix(1 0 0 -1 27.4355 43.832)" stroke="#0943EC" stroke-width="2"/>
<rect x="1.39648" y="9.35156" width="48.8545" height="0.584899" fill="#0943EC" stroke="#0943EC" stroke-width="0.5"/>
<rect opacity="0.8" x="41.0491" y="5.39483" width="4.37022" height="0.758418" rx="0.379209" fill="url(#paint0_linear_834_442)" stroke="#0943EC" stroke-width="0.758418"/>
<rect opacity="0.8" x="31.3968" y="5.39483" width="8.56482" height="0.758418" rx="0.379209" fill="url(#paint1_linear_834_442)" stroke="#0943EC" stroke-width="0.758418"/>
<circle cx="29.4293" cy="5.77498" r="0.5" fill="url(#paint2_linear_834_442)" stroke="#0943EC" stroke-width="0.549954"/>
<circle cx="5.98005" cy="5.77498" r="0.5" fill="url(#paint3_linear_834_442)" stroke="#0943EC" stroke-width="0.549954"/>
<circle cx="7.90974" cy="5.77498" r="0.5" fill="url(#paint4_linear_834_442)" stroke="#0943EC" stroke-width="0.549954"/>
<circle cx="9.8365" cy="5.77498" r="0.5" fill="url(#paint5_linear_834_442)" stroke="#0943EC" stroke-width="0.549954"/>
<defs>
<linearGradient id="paint0_linear_834_442" x1="43.2184" y1="6.409" x2="43.2184" y2="5.12145" gradientUnits="userSpaceOnUse">
<stop stop-color="#070FD5"/>
<stop offset="1" stop-color="#06CDF9"/>
</linearGradient>
<linearGradient id="paint1_linear_834_442" x1="35.6504" y1="6.409" x2="35.6504" y2="5.12145" gradientUnits="userSpaceOnUse">
<stop stop-color="#070FD5"/>
<stop offset="1" stop-color="#06CDF9"/>
</linearGradient>
<linearGradient id="paint2_linear_834_442" x1="29.4245" y1="6.42379" x2="29.4245" y2="5.10814" gradientUnits="userSpaceOnUse">
<stop stop-color="#070FD5"/>
<stop offset="1" stop-color="#06CDF9"/>
</linearGradient>
<linearGradient id="paint3_linear_834_442" x1="5.97526" y1="6.42379" x2="5.97526" y2="5.10814" gradientUnits="userSpaceOnUse">
<stop stop-color="#070FD5"/>
<stop offset="1" stop-color="#06CDF9"/>
</linearGradient>
<linearGradient id="paint4_linear_834_442" x1="7.90495" y1="6.42379" x2="7.90495" y2="5.10814" gradientUnits="userSpaceOnUse">
<stop stop-color="#070FD5"/>
<stop offset="1" stop-color="#06CDF9"/>
</linearGradient>
<linearGradient id="paint5_linear_834_442" x1="9.83171" y1="6.42379" x2="9.83171" y2="5.10814" gradientUnits="userSpaceOnUse">
<stop stop-color="#070FD5"/>
<stop offset="1" stop-color="#06CDF9"/>
</linearGradient>
</defs>
</svg>
