<svg width="95" height="62" viewBox="0 0 95 62" fill="none" xmlns="http://www.w3.org/2000/svg">
<path d="M54.8971 48.9911L54.6665 47.4937L53.1714 47.7393L34.186 50.8579C32.8236 51.0817 31.5377 50.1586 31.3139 48.7962L26.8668 21.7235C26.643 20.361 27.5661 19.0751 28.9285 18.8513L66.426 12.6919C67.7885 12.4681 69.0744 13.3911 69.2982 14.7536L73.7452 41.8263C73.969 43.1887 73.046 44.4746 71.6835 44.6984L63.7795 45.9968L63.2651 46.0813L62.914 46.4665L55.7233 54.3554L54.8971 48.9911Z" stroke="#0943EC" stroke-width="3"/>
<path d="M7.22153 36.1841L7.07483 35.6139L6.5359 35.851L4.27815 36.844C4.11144 36.9173 3.90962 36.8423 3.83164 36.665C3.75367 36.4877 3.83479 36.2883 4.00149 36.215L6.51252 35.1106L6.90132 34.9395L6.79549 34.5282L6.27583 32.5084L6.12913 31.9382L5.5902 32.1753L2.77025 33.4156C2.60355 33.4889 2.40172 33.4139 2.32375 33.2366C2.24577 33.0593 2.32689 32.8599 2.4936 32.7865L5.56681 31.4349L5.95562 31.2639L5.84978 30.8525L5.07084 27.8251C5.07083 27.8251 5.07081 27.825 5.0708 27.825C5.02274 27.6375 5.13414 27.4559 5.31065 27.411L5.31069 27.411C5.488 27.3659 5.67611 27.4738 5.72434 27.6614L5.72435 27.6614L6.43382 30.419L6.58052 30.9891L7.11945 30.7521L8.96718 29.9394L9.35599 29.7684L9.25015 29.3571L8.47118 26.3296C8.47117 26.3296 8.47117 26.3295 8.47116 26.3295C8.42307 26.1424 8.53475 25.9603 8.71092 25.9156L8.71105 25.9155C8.88836 25.8704 9.07647 25.9784 9.1247 26.1659L9.12472 26.166L9.83418 28.9235L9.98088 29.4937L10.5198 29.2567L12.7776 28.2637C12.9443 28.1903 13.1461 28.2653 13.2241 28.4426C13.302 28.6199 13.2209 28.8194 13.0542 28.8927L10.5432 29.9971L10.1544 30.1681L10.2602 30.5794L10.7799 32.5992L10.9266 33.1694L11.4655 32.9324L14.2855 31.6921C14.4522 31.6188 14.654 31.6938 14.732 31.871C14.8099 32.0483 14.7288 32.2478 14.5621 32.3211L11.4889 33.6728L11.1001 33.8438L11.2059 34.2551L11.9849 37.2826C11.9849 37.2826 11.9849 37.2826 11.9849 37.2827C12.0279 37.45 11.9421 37.6151 11.7974 37.6787C11.7811 37.6859 11.7638 37.6919 11.7454 37.6966L11.745 37.6967C11.5677 37.7418 11.3796 37.6338 11.3314 37.4463L11.3314 37.4462L10.6219 34.6887L10.4752 34.1185L9.93627 34.3555L8.08854 35.1682L7.69973 35.3392L7.80557 35.7506L8.58453 38.778C8.58454 38.778 8.58455 38.7781 8.58455 38.7781C8.62753 38.9455 8.54175 39.1105 8.39704 39.1742C8.38069 39.1813 8.36345 39.1873 8.34506 39.192L8.34467 39.1921C8.16736 39.2372 7.97925 39.1293 7.93101 38.9417L7.931 38.9417L7.22153 36.1841ZM10.2639 35.304L10.8471 37.5708L8.46793 39.6767C8.51344 39.6652 8.55691 39.6501 8.59837 39.6319C8.96642 39.47 9.1731 39.059 9.06885 38.6535L8.28987 35.626L9.67373 35.0173L9.6533 34.9379L10.1376 34.8133L10.3389 35.271L10.2639 35.304ZM7.14289 31.4924L6.75409 31.6634L6.85992 32.0747L7.37958 34.0945L7.52628 34.6647L8.06521 34.4276L9.91294 33.615L10.3017 33.444L10.1959 33.0326L9.67625 31.0128L9.52955 30.4427L8.99062 30.6797L7.14289 31.4924Z" fill="#0943EC" stroke="#0943EC" stroke-width="1.00014"/>
<path d="M52.7587 24.0286L52.5348 22.6391L53.253 22.5233C53.3245 22.8037 53.3799 23.0882 53.4189 23.3752C53.2199 23.6223 52.9962 23.8411 52.7587 24.0286ZM52.7587 24.0286C52.586 24.1649 52.4061 24.2845 52.223 24.3865M52.7587 24.0286L52.8386 24.5244L52.1608 24.6337C52.1826 24.5515 52.2034 24.4691 52.223 24.3865M52.223 24.3865C52.5163 23.1519 52.5652 21.8618 52.3563 20.59C52.4727 21.2988 52.2159 21.9166 51.8563 22.3072C51.7185 22.457 51.5437 22.5967 51.3385 22.7083C51.5354 23.3388 51.6206 24.0031 51.5863 24.6659C51.6745 24.637 51.7598 24.6053 51.8419 24.5713C51.9695 24.5184 52.097 24.4566 52.223 24.3865ZM53.0848 26.0517L51.7922 25.7439C51.7936 25.7403 51.7951 25.7367 51.7965 25.7331C51.9291 25.4012 52.0429 25.0628 52.1376 24.7194C52.3969 24.7378 52.6511 24.7892 52.8945 24.871L53.0828 26.0394L53.0828 26.0394L53.0848 26.0517ZM53.0848 26.0517L51.7922 25.7439C51.7466 25.8576 51.6988 25.9706 51.6487 26.0827L51.6726 26.2312L51.9173 27.7511L51.9173 27.7512L51.9195 27.7652L51.9311 27.7545L51.9313 27.7544L53.1749 26.6111L53.194 26.5935L53.1712 26.5881L53.0848 26.0517ZM50.1749 22.5726L50.1413 22.9488C50.1424 22.949 50.1434 22.9491 50.1445 22.9493C50.1819 22.9511 50.2243 22.953 50.2638 22.9542C50.2911 22.9295 50.3181 22.9048 50.3447 22.8801C50.3605 22.7139 50.3709 22.5471 50.3757 22.3798C50.3112 22.4444 50.2443 22.5087 50.1749 22.5726ZM50.1749 22.5726L50.3055 21.1103C50.3055 21.1103 50.3055 21.1102 50.3055 21.1102L50.1749 22.5726C50.1749 22.5726 50.1749 22.5726 50.1749 22.5726ZM50.1399 22.9486L50.1735 22.5738C50.0834 22.6568 49.9892 22.7391 49.8907 22.8208M50.1399 22.9486L48.7204 19.8427C48.7506 20.2592 48.8359 20.6937 48.992 21.1425C48.992 21.1426 48.992 21.1426 48.992 21.1427C49.0638 21.3491 49.1505 21.5585 49.2537 21.7707C49.2539 21.7711 49.2541 21.7716 49.2544 21.772C49.2564 21.7761 49.2584 21.7803 49.2604 21.7844M50.1399 22.9486C50.0886 22.9418 50.0255 22.9329 49.967 22.9237C49.9411 22.8894 49.9157 22.8551 49.8907 22.8208M49.8907 22.8208C49.637 22.473 49.4306 22.1305 49.2654 21.7946M49.2654 21.7946L50.2831 20.9611C50.2831 20.9608 50.283 20.9604 50.283 20.9601L49.2604 21.7844M49.2654 21.7946C49.2637 21.7912 49.2621 21.7878 49.2604 21.7844M49.2654 21.7946L49.2329 21.8212C49.3997 22.156 49.6076 22.4975 49.8623 22.8442L49.2604 21.7844M51.9194 27.7654L51.8908 27.7916L51.889 27.7933L51.2241 28.4046L51.8895 27.7936L51.8913 27.792L51.9195 27.7661L51.9273 27.8143L51.9278 27.8175L52.0696 28.6974L51.928 27.8176L51.9275 27.8144L51.9197 27.7659L51.9319 27.7547L51.932 27.7546L53.1753 26.6132L53.1961 26.594L51.9194 27.7654ZM51.1449 22.1824C51.4674 21.7892 51.8311 21.262 52.1132 20.63C52.1132 20.6299 52.1132 20.6299 52.1132 20.6298C52.1655 20.5126 52.215 20.3918 52.261 20.2675C52.2488 20.249 52.2365 20.2305 52.2242 20.2121C52.1712 20.3596 52.113 20.5023 52.0509 20.6401C52.0509 20.6401 52.0509 20.6402 52.0508 20.6402C51.7796 21.2422 51.4347 21.7482 51.1235 22.1329C51.1307 22.1494 51.1378 22.1659 51.1449 22.1824ZM51.9045 20.6642C51.7249 21.1297 51.4623 21.6013 51.0952 22.0693C51.0447 21.9578 50.9905 21.8478 50.9326 21.7397C51.1833 21.4052 51.3784 21.0658 51.5266 20.7263C51.5267 20.7263 51.5267 20.7262 51.5267 20.7262C51.6761 20.3841 51.7778 20.0419 51.8408 19.7043C51.8415 19.7005 51.8423 19.6967 51.843 19.6929C51.8445 19.6949 51.8461 19.6969 51.8477 19.6988C51.9352 19.8079 52.0195 19.9192 52.1003 20.0326C52.0509 20.2413 51.9863 20.4521 51.9045 20.6641C51.9045 20.6642 51.9045 20.6642 51.9045 20.6642ZM50.3365 22.9616C50.337 22.957 50.3374 22.9525 50.3379 22.9479C50.3303 22.9538 50.3241 22.9583 50.3194 22.9615C50.3251 22.9616 50.3308 22.9616 50.3365 22.9616Z" stroke="#0943EC" stroke-width="8"/>
<path d="M81.1732 15.2263C81.1732 15.2263 75.5241 8.44423 78.3189 3.6035C81.1138 -1.23724 87.9419 3.50258 85.7162 7.35768C88.0029 3.39698 95.488 6.83392 92.7848 11.5161C90.0815 16.1983 81.1732 15.2263 81.1732 15.2263Z" stroke="#0943EC" stroke-width="2" stroke-linejoin="round"/>
</svg>
