<?xml version="1.0" encoding="utf-8"?>
<!-- Generator: Adobe Illustrator 27.9.0, SVG Export Plug-In . SVG Version: 6.00 Build 0)  -->
<svg version="1.1" id="Layer_1" xmlns="http://www.w3.org/2000/svg" xmlns:xlink="http://www.w3.org/1999/xlink" x="0px" y="0px"
	 viewBox="0 0 95 62" style="enable-background:new 0 0 95 62;" xml:space="preserve">
<style type="text/css">
	.st0{opacity:0.2;fill:none;stroke:url(#SVGID_1_);stroke-width:3;enable-background:new    ;}
	
		.st1{fill:url(#SVGID_00000029734282266382390790000008359323964046407865_);stroke:url(#SVGID_00000182519236396298389360000014450682603574119861_);stroke-width:1.0001;}
	.st2{fill:none;stroke:url(#SVGID_00000171709845277230720830000002079160744976887714_);stroke-width:2;stroke-linejoin:round;}
	.st3{fill-rule:evenodd;clip-rule:evenodd;fill:url(#SVGID_00000054977919713432652400000011125005219501781437_);}
	.st4{fill:#FFFFFF;filter:url(#Adobe_OpacityMaskFilter);}
	
		.st5{mask:url(#path-1-inside-1_1077_349_00000048503273987803595830000002538133526285643449_);fill:url(#SVGID_00000178923906824066795920000005006681866129078413_);}
</style>
<linearGradient id="SVGID_1_" gradientUnits="userSpaceOnUse" x1="23.9145" y1="52.0075" x2="81.3577" y2="7.3729" gradientTransform="matrix(1 0 0 -1 0 63.2756)">
	<stop  offset="0" style="stop-color:#000000"/>
	<stop  offset="1" style="stop-color:#0058FF"/>
</linearGradient>
<path class="st0" d="M63.8,46l-0.5,0.1l-0.4,0.4l-7.2,7.9L54.9,49l-0.2-1.5l-1.5,0.2l-19,3.1c-1.4,0.2-2.6-0.7-2.9-2.1l-4.4-27.1
	c-0.2-1.4,0.7-2.6,2.1-2.9l37.5-6.2c1.4-0.2,2.6,0.7,2.9,2.1l4.4,27.1c0.2,1.4-0.7,2.6-2.1,2.9L63.8,46z"/>
<linearGradient id="SVGID_00000163767782019072568790000004071661397107136696_" gradientUnits="userSpaceOnUse" x1="11.1477" y1="24.7649" x2="5.908" y2="36.6788" gradientTransform="matrix(1 0 0 -1 0 63.2756)">
	<stop  offset="0" style="stop-color:#6B6B6B;stop-opacity:0.1"/>
	<stop  offset="1" style="stop-color:#EEEEEE;stop-opacity:0.5"/>
</linearGradient>
<linearGradient id="SVGID_00000062890041512479574100000001299458207193675409_" gradientUnits="userSpaceOnUse" x1="11.1477" y1="24.7648" x2="5.9081" y2="36.6786" gradientTransform="matrix(1 0 0 -1 0 63.2756)">
	<stop  offset="0" style="stop-color:#E1DDDD"/>
	<stop  offset="1" style="stop-color:#DCDCDC;stop-opacity:0"/>
</linearGradient>
<path style="fill:url(#SVGID_00000163767782019072568790000004071661397107136696_);stroke:url(#SVGID_00000062890041512479574100000001299458207193675409_);stroke-width:1.0001;" d="
	M7.2,36.2l-0.1-0.6l-0.5,0.2l-2.3,1c-0.2,0.1-0.4,0-0.4-0.2c-0.1-0.2,0-0.4,0.2-0.5l2.5-1.1l0.4-0.2l-0.1-0.4l-0.5-2l-0.1-0.6
	l-0.5,0.2l-2.8,1.2c-0.2,0.1-0.4,0-0.4-0.2c-0.1-0.2,0-0.4,0.2-0.5l3.1-1.4L6,31.3l-0.1-0.4l-0.8-3c0,0,0,0,0,0
	c0-0.2,0.1-0.4,0.2-0.4h0c0.2,0,0.4,0.1,0.4,0.3h0l0.7,2.8L6.6,31l0.5-0.2L9,29.9l0.4-0.2l-0.1-0.4l-0.8-3c0,0,0,0,0,0
	c0-0.2,0.1-0.4,0.2-0.4l0,0c0.2,0,0.4,0.1,0.4,0.3l0,0l0.7,2.8l0.1,0.6l0.5-0.2l2.3-1c0.2-0.1,0.4,0,0.4,0.2c0.1,0.2,0,0.4-0.2,0.5
	L10.5,30l-0.4,0.2l0.1,0.4l0.5,2l0.1,0.6l0.5-0.2l2.8-1.2c0.2-0.1,0.4,0,0.4,0.2c0.1,0.2,0,0.4-0.2,0.5l-3.1,1.4l-0.4,0.2l0.1,0.4
	l0.8,3c0,0,0,0,0,0c0,0.2,0,0.3-0.2,0.4c0,0,0,0-0.1,0l0,0c-0.2,0-0.4-0.1-0.4-0.3v0l-0.7-2.8l-0.1-0.6l-0.5,0.2l-1.8,0.8l-0.4,0.2
	l0.1,0.4l0.8,3c0,0,0,0,0,0c0,0.2,0,0.3-0.2,0.4c0,0,0,0-0.1,0l0,0c-0.2,0-0.4-0.1-0.4-0.3h0L7.2,36.2z M7.1,31.5l-0.4,0.2l0.1,0.4
	l0.5,2l0.1,0.6l0.5-0.2l1.8-0.8l0.4-0.2L10.2,33l-0.5-2l-0.1-0.6L9,30.7L7.1,31.5z"/>
<linearGradient id="SVGID_00000013900133957830219970000012060516363681816471_" gradientUnits="userSpaceOnUse" x1="81.1374" y1="48.0702" x2="87.5374" y2="59.1547" gradientTransform="matrix(1 0 0 -1 0 63.2756)">
	<stop  offset="0" style="stop-color:#6B6B6B;stop-opacity:0.1"/>
	<stop  offset="1" style="stop-color:#EEEEEE;stop-opacity:0.5"/>
</linearGradient>
<path style="fill:none;stroke:url(#SVGID_00000013900133957830219970000012060516363681816471_);stroke-width:2;stroke-linejoin:round;" d="
	M81.2,15.2c0,0-5.6-6.8-2.9-11.6c2.8-4.8,9.6-0.1,7.4,3.8c2.3-4,9.8-0.5,7.1,4.2C90.1,16.2,81.2,15.2,81.2,15.2z"/>
<linearGradient id="SVGID_00000099639850682670820890000006310743984289685682_" gradientUnits="userSpaceOnUse" x1="48.2134" y1="16.303" x2="53.3139" y2="59.3298">
	<stop  offset="0" style="stop-color:#6B6B6B;stop-opacity:0"/>
	<stop  offset="0.9976" style="stop-color:#EEEEEE;stop-opacity:0.5"/>
</linearGradient>
<path style="fill-rule:evenodd;clip-rule:evenodd;fill:url(#SVGID_00000099639850682670820890000006310743984289685682_);" d="
	M57.9,28.1c0.3,0,0.6,0.2,0.6,0.5c0,0.2,0.1,0.7,0.2,1.3c0.6,3.6,1.1,7.1,1.3,7.7c0,0.2,0,0.4-0.1,0.4c-0.1,0.1-0.2,0.2-0.4,0.2
	l-8.9,1.5c-1.1,0.2-2.2,0-3.1-0.6l-0.4-0.3l-1.2-7.4l3.1-5c1-1.6,1.3-3.4,1-5.2c0-0.1,0.1-0.1,0.1,0c1.1,1.3,1.5,3.1,1.1,4.8
	l-0.4,1.9c-0.1,0.3,0,0.6,0.2,0.9c0.2,0.2,0.5,0.3,0.8,0.3L57.9,28.1z M45.4,40.1l-3.2,0.5l-1.6-9.5l3.2-0.5L45.4,40.1z M50.3,19.3
	c-1.2-0.1-2.3,1-2.1,2.3c0.2,1.4-0.1,2.7-0.8,3.9l-2.1,3.4c-0.2-0.2-0.5-0.4-0.9-0.3l-5,0.8c-0.5,0.1-0.9,0.6-0.8,1.1l1.9,11.4
	c0.1,0.5,0.6,0.9,1.1,0.8l5-0.8c0.4-0.1,0.7-0.3,0.8-0.7c1.1,0.5,2.4,0.6,3.6,0.4l8.9-1.5c1.4-0.2,2.3-1.6,2-2.9
	c-0.1-0.6-1.4-8.7-1.5-8.9c-0.2-1.3-1.5-2.3-2.8-2L53,27l0.1-0.5c0.5-2.2,0-4.6-1.4-6.4C51.3,19.6,50.8,19.4,50.3,19.3
	C50.8,19.4,49.8,19.3,50.3,19.3C50.8,19.4,49.1,19.2,50.3,19.3z"/>
<defs>
	<filter id="Adobe_OpacityMaskFilter" filterUnits="userSpaceOnUse" x="40.4" y="-77.8" width="39.2" height="39.4">
		<feColorMatrix  type="matrix" values="1 0 0 0 0  0 1 0 0 0  0 0 1 0 0  0 0 0 1 0"/>
	</filter>
</defs>
<mask maskUnits="userSpaceOnUse" x="40.4" y="-77.8" width="39.2" height="39.4" id="path-1-inside-1_1077_349_00000048503273987803595830000002538133526285643449_">
	<path class="st4" d="M60-69.8c-1.2-0.1-2.3,1-2.1,2.3c0.2,1.4-0.1,2.7-0.8,3.9l-2.1,3.4c-0.2-0.2-0.5-0.4-0.9-0.3l-5,0.8
		c-0.5,0.1-0.9,0.6-0.8,1.1l1.9,11.4c0.1,0.5,0.6,0.9,1.1,0.8l5-0.8c0.4-0.1,0.7-0.3,0.8-0.7c1.1,0.5,2.4,0.6,3.6,0.4l8.9-1.5
		c1.4-0.2,2.3-1.6,2-2.9c-0.1-0.6-1.4-8.7-1.5-8.9c-0.2-1.3-1.5-2.3-2.8-2l-4.6,0.7l0.1-0.5c0.5-2.2,0-4.6-1.4-6.4
		C61-69.5,60.6-69.8,60-69.8C60.6-69.8,59.5-69.8,60-69.8C60.6-69.8,58.8-69.9,60-69.8z M55.2-49L52-48.5L50.5-58l3.2-0.5L55.2-49z
		 M67.6-61c0.3,0,0.6,0.2,0.6,0.5c0,0.2,0.1,0.7,0.2,1.3c0.6,3.6,1.1,7.1,1.3,7.7c0,0.2,0,0.4-0.1,0.4c-0.1,0.1-0.2,0.2-0.4,0.2
		l-8.9,1.5c-1.1,0.2-2.2,0-3.1-0.6l-0.4-0.3l-1.2-7.4l3.1-5c1-1.6,1.3-3.4,1-5.2c0-0.1,0.1-0.1,0.1,0c1.1,1.3,1.5,3.1,1.1,4.8
		l-0.4,1.9c-0.1,0.3,0,0.6,0.2,0.9c0.2,0.2,0.5,0.3,0.8,0.3L67.6-61z"/>
</mask>
<linearGradient id="SVGID_00000088843377685771930480000000591099870972271782_" gradientUnits="userSpaceOnUse" x1="60.0371" y1="109.7273" x2="60.0376" y2="133.1146" gradientTransform="matrix(1 0 0 -1 0 63.2756)">
	<stop  offset="0" style="stop-color:#6B6B6B;stop-opacity:0.1"/>
	<stop  offset="1" style="stop-color:#EEEEEE;stop-opacity:0.5"/>
</linearGradient>
<path style="mask:url(#path-1-inside-1_1077_349_00000048503273987803595830000002538133526285643449_);fill:url(#SVGID_00000088843377685771930480000000591099870972271782_);" d="
	M60-69.8l0.7-8l0,0L60-69.8z M58-67.5l7.9-1.3L58-67.5z M57.2-63.6l6.8,4.2l0,0L57.2-63.6z M55.1-60.3l-5.9,5.4l7.1,7.8l5.6-9
	L55.1-60.3z M54.2-60.6l1.3,7.9l0,0L54.2-60.6z M49.2-59.8l-1.3-7.9l0,0L49.2-59.8z M48.4-58.7l7.9-1.3L48.4-58.7z M50.3-47.3
	L42.4-46L50.3-47.3z M51.4-46.5l1.3,7.9l0,0L51.4-46.5z M56.4-47.3l-1.3-7.9l0,0L56.4-47.3z M57.2-48l3-7.4l-8.4-3.4l-2.4,8.8
	L57.2-48z M60.7-47.6l1.3,7.9l0,0L60.7-47.6z M69.6-49l-1.3-7.9l0,0L69.6-49z M71.6-52l7.8-1.7l0,0L71.6-52z M70.1-60.9l7.9-1.3
	L70.1-60.9z M67.3-62.9l1.3,7.9l0,0l0,0L67.3-62.9z M62.7-62.2L54.9-64l-2.8,11.7L64-54.3L62.7-62.2z M62.8-62.7l7.8,1.9v0
	L62.8-62.7z M61.4-69.1l-6.2,5l0,0L61.4-69.1z M55.2-49l1.3,7.9l7.9-1.3l-1.3-7.9L55.2-49z M52-48.5l-7.9,1.3l1.3,7.9l7.9-1.3
	L52-48.5z M50.5-58l-1.3-7.9l-7.9,1.3l1.3,7.9L50.5-58z M53.6-58.5l7.9-1.3l-1.3-7.9l-7.9,1.3L53.6-58.5z M67.6-61l1.3,7.9l0,0l0,0
	L67.6-61z M68.3-60.6l-7.9,1.3L68.3-60.6z M68.5-59.3l7.9-1.3v0L68.5-59.3z M69.8-51.6l-7.8,1.7l0,0L69.8-51.6z M69.7-51.2l6.6,4.5
	l0,0L69.7-51.2z M69.3-50.9l1.3,7.9l0,0L69.3-50.9z M60.4-49.5l-1.3-7.9l0,0L60.4-49.5z M57.3-50l-4,6.9l0,0L57.3-50z M56.9-50.3
	L49-49l0.6,3.7l3.3,1.9L56.9-50.3z M55.7-57.6l-6.8-4.2l-1.6,2.6l0.5,3L55.7-57.6z M58.8-62.6l6.8,4.2l0,0L58.8-62.6z M59.8-67.8
	l-7.9,1.3L59.8-67.8z M59.9-67.9l6.2-5l0,0l0,0L59.9-67.9z M61-63.1l7.8,1.9v0L61-63.1z M60.5-61.2l7.8,1.9l0,0L60.5-61.2z
	 M60.8-60.4L54.9-55l0,0L60.8-60.4z M61.6-60.1l1.3,7.9l0,0L61.6-60.1z M60.8-77.8c-6.5-0.6-11.7,5.2-10.7,11.5l15.8-2.6
	c0.6,3.8-2.5,7.4-6.5,7L60.8-77.8z M50.1-66.2c-0.1-0.6,0-1.1,0.3-1.6L64-59.4c1.7-2.8,2.4-6.2,1.9-9.4L50.1-66.2z M50.4-67.9
	l-2.1,3.4L61.9-56l2.1-3.4L50.4-67.9z M61-65.7c-1.9-2.1-4.9-3.3-8.1-2.8l2.6,15.8c-2.5,0.4-4.9-0.5-6.4-2.2L61-65.7z M52.9-68.5
	l-5,0.8l2.6,15.8l5-0.8L52.9-68.5z M47.9-67.6c-4.9,0.8-8.2,5.5-7.4,10.3L56.3-60c0.6,3.8-1.9,7.5-5.8,8.1L47.9-67.6z M40.5-57.4
	L42.4-46l15.8-2.6L56.3-60L40.5-57.4z M42.4-46c0.8,4.8,5.3,8.2,10.3,7.4l-2.6-15.8c3.9-0.6,7.5,2,8.1,5.8L42.4-46z M52.7-38.6
	l5-0.8l-2.6-15.8l-5,0.8L52.7-38.6z M57.7-39.4c3.6-0.6,6.3-3.3,7.2-6.5l-15.4-4.2c0.7-2.5,2.8-4.7,5.7-5.1L57.7-39.4z M54.1-40.6
	c2.5,1,5.2,1.3,7.9,0.9l-2.6-15.8c0.3,0,0.5,0,0.8,0.1L54.1-40.6z M62-39.7l8.9-1.5l-2.6-15.8l-8.9,1.5L62-39.7z M70.9-41.1
	c5.9-1,9.7-6.8,8.5-12.5l-15.7,3.3c-0.6-3,1.3-6.1,4.5-6.6L70.9-41.1z M79.4-53.6c0,0.1,0-0.3-0.2-1.3c-0.1-0.8-0.3-1.9-0.5-3
	c-0.3-2.1-0.7-4.2-0.7-4.3l-15.8,2.6c0,0,0,0,0,0.1c0,0.1,0,0.2,0,0.3c0,0.2,0.1,0.6,0.2,1c0.1,0.8,0.3,1.9,0.5,2.9
	c0.3,1.9,0.7,4.4,0.8,5L79.4-53.6z M78-62.2c-0.9-5.6-6.2-9.6-12-8.6L68.6-55c-3.1,0.5-5.9-1.6-6.4-4.6L78-62.2z M66.1-70.8
	l-4.6,0.7L64-54.3l4.6-0.7L66.1-70.8z M70.5-60.3l0.1-0.5L55-64.5L54.9-64L70.5-60.3z M70.6-60.8c1.1-4.6,0-9.6-3-13.3l-12.5,10
	c-0.1-0.1-0.1-0.2-0.1-0.2c0-0.1,0-0.1,0-0.2L70.6-60.8z M67.6-74.1c-1.7-2.1-4.2-3.4-6.9-3.7l-1.4,15.9c-1.6-0.1-3.2-1-4.2-2.2
	L67.6-74.1z M60.8-77.8c-0.1,0-0.1,0-0.1,0c0,0,0,0,0,0c0,0,0,0,0,0c0,0,0,0,0,0c0,0,0,0,0,0c0,0,0,0,0,0c0,0,0,0,0,0c0,0,0,0,0,0
	c0,0,0,0,0,0c0,0,0,0,0,0c0,0-0.3,0-0.5,0c-8.1,7.4-1.2,15.9-1,16c0,0,0.1,0,0.1,0c0,0,0,0,0,0c0,0,0,0,0,0c0,0,0,0,0,0c0,0,0,0,0,0
	c0,0,0,0,0,0c0,0,0,0,0,0c0,0,0,0,0,0c0,0,0,0,0,0c0,0,0.1,0,0.1,0c0,0,0.1,0,0.1,0c0,0,0,0,0,0c0,0,0,0,0,0c0,0,0,0,0,0
	c0,0,0,0,0,0c0,0,0,0,0,0c0,0,0,0,0,0c0,0,0,0,0,0c0,0,0,0,0,0c0,0,0.1,0,0.1,0c0.1,0,8.5-7.1,1.9-15.9c-0.2,0-0.5-0.1-0.6-0.1
	c0,0,0,0,0,0c0,0,0,0,0,0c0,0,0,0,0,0c0,0,0,0,0,0c0,0,0,0,0,0c0,0,0,0,0,0c0,0,0,0,0,0c0,0,0,0,0,0c0,0,0,0,0,0
	C60.9-77.8,60.8-77.8,60.8-77.8l-1.4,15.9c0.1,0,0.1,0,0.1,0c0,0,0,0,0,0c0,0,0,0,0,0c0,0,0,0,0,0c0,0,0,0,0,0c0,0,0,0,0,0
	c0,0,0,0,0,0c0,0,0,0,0,0c0,0,0,0,0,0c0,0,0,0,0,0c0,0-0.3,0-0.6-0.1C52.2-70.6,60.6-77.8,60.8-77.8C60.8-77.8,60.8-77.8,60.8-77.8
	c0.1,0,0.1,0,0.1,0c0,0,0,0,0,0c0,0,0,0,0,0c0,0,0,0,0,0c0,0,0,0,0,0c0,0,0,0,0,0c0,0,0,0,0,0C60.9-77.8,60.9-77.8,60.8-77.8
	C60.8-77.8,60.8-77.8,60.8-77.8C60.7-77.8,60.7-77.8,60.8-77.8c-0.1,0-0.1,0-0.1,0c0,0,0,0,0,0c0,0,0,0,0,0c0,0,0,0,0,0c0,0,0,0,0,0
	c0,0,0,0,0,0c0,0,0,0,0,0C60.6-77.8,60.7-77.8,60.8-77.8C60.7-77.8,60.7-77.8,60.8-77.8c0.1,0,7.1,8.6-1,16c-0.2,0-0.4,0-0.5,0
	c0,0,0,0,0,0c0,0,0,0,0,0c0,0,0,0,0,0c0,0,0,0,0,0c0,0,0,0,0,0c0,0,0,0,0,0c0,0,0,0,0,0c0,0,0,0,0,0c0,0,0,0,0,0c0,0,0.1,0,0.1,0
	L60.8-77.8z M60.8-77.8c-0.2,0-0.3,0-0.3,0c0,0-0.1,0-0.1,0c0,0,0,0,0,0c0,0,0,0,0,0c0,0,0,0,0,0c0,0,0,0,0,0c0,0,0,0,0,0
	c0,0,0,0,0,0c0,0,0,0,0,0c0,0,0,0,0,0c0,0-0.1,0-0.1,0c-8.5,6.7-1.9,15.9-1.4,15.9c0,0,0.1,0,0.1,0c0,0,0,0,0,0c0,0,0,0,0,0
	c0,0,0,0,0,0c0,0,0,0,0,0c0,0,0,0,0,0c0,0,0,0,0,0c0,0,0,0,0,0c0,0,0.1,0,0.1,0c0.1,0,0.2,0,0.3,0c0,0,0,0,0,0c0,0,0,0,0,0
	c0,0,0,0,0,0c0,0,0,0,0,0c0,0,0,0,0,0c0,0,0,0,0,0c0,0,0,0,0,0c0,0,0,0,0.1,0c0.1,0,8.5-7.1,1.9-15.9c-0.2,0-0.5-0.1-0.6-0.1
	c0,0,0,0,0,0c0,0,0,0,0,0c0,0,0,0,0,0c0,0,0,0,0,0c0,0,0,0,0,0c0,0,0,0,0,0C60.9-77.8,60.9-77.8,60.8-77.8
	C60.8-77.8,60.8-77.8,60.8-77.8C60.8-77.8,60.8-77.8,60.8-77.8l-1.4,15.9c0,0,0.1,0,0.1,0c0,0,0,0,0,0c0,0,0,0,0,0c0,0,0,0,0,0
	c0,0,0,0,0,0s0,0,0,0c0,0,0,0,0,0c0,0,0,0,0,0c0,0,0,0,0,0c0,0,0,0,0,0c0,0,0,0,0,0c0,0,0,0,0,0c0,0-0.3,0-0.6-0.1
	C52.2-70.7,60.6-77.8,60.8-77.8C60.7-77.8,60.8-77.8,60.8-77.8C60.8-77.8,60.8-77.8,60.8-77.8C60.8-77.8,60.8-77.8,60.8-77.8
	C60.8-77.8,60.8-77.8,60.8-77.8C60.8-77.8,60.8-77.8,60.8-77.8C60.8-77.8,60.8-77.8,60.8-77.8C60.8-77.8,60.8-77.8,60.8-77.8
	C60.8-77.8,60.8-77.8,60.8-77.8c0,0-0.2,0-0.3,0c-0.1,0-0.1,0-0.1,0c0,0,0,0,0,0c0,0,0,0,0,0c0,0,0,0,0,0c0,0,0,0,0,0c0,0,0,0,0,0
	c0,0,0,0,0,0c0,0,0,0,0,0c0,0,0.1,0,0.1,0c0.6,0.1,7.1,9.2-1.4,15.9c0,0-0.1,0-0.1,0c0,0,0,0,0,0c0,0,0,0,0,0c0,0,0,0,0,0
	c0,0,0,0,0,0c0,0,0,0,0,0c0,0,0,0,0,0c0,0,0,0,0,0c0,0,0,0,0,0c0,0,0,0,0.1,0c0.1,0,0.2,0,0.3,0L60.8-77.8z M53.9-56.9l-3.2,0.5
	l2.6,15.8l3.2-0.5L53.9-56.9z M59.9-49.8l-1.6-9.5l-15.8,2.6l1.6,9.5L59.9-49.8z M51.7-50.1l3.2-0.5l-2.6-15.8l-3.2,0.5L51.7-50.1z
	 M45.7-57.2l1.6,9.5l15.8-2.6l-1.6-9.5L45.7-57.2z M68.9-53.1c-4.1,0.7-7.9-2.1-8.6-6.1l15.8-2.6c-0.8-4.6-5.1-7.8-9.8-7.1
	L68.9-53.1z M60.4-59.3c0,0.2,0.1,0.6,0.2,1.3l15.8-2.5c-0.1-0.6-0.2-1.2-0.2-1.4L60.4-59.3z M60.6-58c0.6,3.4,1.2,7.2,1.3,8.1
	l15.7-3.3c0,0.1,0-0.1-0.1-0.6c-0.1-0.4-0.2-1-0.3-1.7c-0.2-1.4-0.5-3.1-0.8-5L60.6-58z M61.9-49.9c-0.6-2.7,0.5-4.8,1.1-5.7l13.3,9
	c0.7-1.1,1.9-3.5,1.3-6.6L61.9-49.9z M63-55.6c1.1-1.7,2.9-2.8,5-3.2L70.6-43c2.3-0.4,4.4-1.7,5.7-3.6L63-55.6z M68-58.8l-8.9,1.5
	l2.6,15.8l8.9-1.5L68-58.8z M59.1-57.4c0.8-0.1,1.5,0,2.2,0.4l-8,13.9c2.5,1.5,5.5,2,8.4,1.5L59.1-57.4z M61.3-57l-0.4-0.3l-8,13.9
	l0.4,0.3L61.3-57z M64.8-51.6l-1.2-7.4l-15.8,2.6L49-49L64.8-51.6z M62.5-53.4l3.1-5L52-66.8l-3.1,5L62.5-53.4z M65.6-58.4
	c2-3.2,2.7-7,2.1-10.7l-15.8,2.6c0-0.1,0-0.2,0.1-0.3L65.6-58.4z M67.7-69.1c0.7,4.3-2,7.5-4.8,8.6c-2.5,1-6.5,1-9.2-2.3l12.4-10.1
	c-2.7-3.3-6.8-3.4-9.3-2.3c-2.8,1.2-5.6,4.4-4.9,8.7L67.7-69.1z M53.7-62.9c-0.5-0.6-0.7-1.4-0.5-2.1l15.6,3.7c1-4.1,0-8.4-2.6-11.6
	L53.7-62.9z M53.2-65l-0.4,1.9l15.6,3.7l0.4-1.9L53.2-65z M52.8-63.1c-0.7,2.9,0.1,5.9,2.1,8.1l11.8-10.8c1.6,1.7,2.2,4.1,1.7,6.4
	L52.8-63.1z M54.9-54.9c2,2.2,5,3.3,8,2.8L60.3-68c2.4-0.4,4.7,0.5,6.3,2.2L54.9-54.9z M62.9-52.2l6-1l-2.5-15.8l-6,1L62.9-52.2z"/>
</svg>
