<?xml version="1.0" encoding="utf-8"?>
<!-- Generator: Adobe Illustrator 27.9.0, SVG Export Plug-In . SVG Version: 6.00 Build 0)  -->
<svg version="1.1" id="Layer_1" xmlns="http://www.w3.org/2000/svg" xmlns:xlink="http://www.w3.org/1999/xlink" x="0px" y="0px"
	 viewBox="0 0 51 62" style="enable-background:new 0 0 51 62;" xml:space="preserve">
<style type="text/css">
	
		.st0{fill:url(#SVGID_1_);fill-opacity:0.5;stroke:url(#SVGID_00000000191953116308894870000018181746116322933437_);stroke-width:2;stroke-linecap:round;}
	
		.st1{fill:url(#SVGID_00000029028904180453780230000000931341864157204385_);fill-opacity:0.5;stroke:url(#SVGID_00000059290668101362357510000001445228099458445234_);stroke-width:2;stroke-linecap:round;stroke-linejoin:round;}
	
		.st2{opacity:0.2;fill:none;stroke:url(#SVGID_00000018220185754479977820000003595946656864731776_);stroke-width:3;enable-background:new    ;}
	.st3{fill:url(#SVGID_00000144313950148052925750000015086875806240596620_);}
</style>
<g>
	
		<linearGradient id="SVGID_1_" gradientUnits="userSpaceOnUse" x1="48.0739" y1="-0.3097" x2="34.8094" y2="21.0986" gradientTransform="matrix(1 0 0 -1 0 63.2756)">
		<stop  offset="0" style="stop-color:#B8C9E3;stop-opacity:0.7"/>
		<stop  offset="1" style="stop-color:#FFFFFF;stop-opacity:0.9"/>
	</linearGradient>
	
		<linearGradient id="SVGID_00000098208648702394358050000007427255615795975853_" gradientUnits="userSpaceOnUse" x1="43.2282" y1="6.854" x2="33.3967" y2="23.8841" gradientTransform="matrix(1 0 0 -1 0 63.2756)">
		<stop  offset="0" style="stop-color:#6B6B6B;stop-opacity:0.1"/>
		<stop  offset="1" style="stop-color:#EEEEEE;stop-opacity:0.5"/>
	</linearGradient>
	
		<path style="fill:url(#SVGID_1_);fill-opacity:0.5;stroke:url(#SVGID_00000098208648702394358050000007427255615795975853_);stroke-width:2;stroke-linecap:round;" d="
		M39.7,36.3l9.1,16.8l-7.7,0.1l-3.9,6.6l-8.5-17.3C28.7,42.5,35.3,41,39.7,36.3z"/>
	
		<linearGradient id="SVGID_00000088813342541086246960000009540018633768638889_" gradientUnits="userSpaceOnUse" x1="8.2097" y1="5.9544" x2="14.3828" y2="22.8543" gradientTransform="matrix(1 0 0 -1 0 63.2756)">
		<stop  offset="0" style="stop-color:#B8C9E3;stop-opacity:0.7"/>
		<stop  offset="1" style="stop-color:#FFFFFF;stop-opacity:0.9"/>
	</linearGradient>
	
		<linearGradient id="SVGID_00000078754654584686643700000018185369535963107462_" gradientUnits="userSpaceOnUse" x1="8.6186" y1="6.4746" x2="14.9654" y2="25.0581" gradientTransform="matrix(1 0 0 -1 0 63.2756)">
		<stop  offset="0" style="stop-color:#6B6B6B;stop-opacity:0.1"/>
		<stop  offset="1" style="stop-color:#EEEEEE;stop-opacity:0.5"/>
	</linearGradient>
	
		<path style="fill:url(#SVGID_00000088813342541086246960000009540018633768638889_);fill-opacity:0.5;stroke:url(#SVGID_00000078754654584686643700000018185369535963107462_);stroke-width:2;stroke-linecap:round;stroke-linejoin:round;" d="
		M8.5,36L2.1,55.3l7.6-1.4l5.1,5.8l5.8-17.1C12.4,41.2,8.5,36,8.5,36z"/>
	
		<linearGradient id="SVGID_00000160872824775304603060000017379602414586979484_" gradientUnits="userSpaceOnUse" x1="0.2875" y1="66.1714" x2="47.8962" y2="17.0347" gradientTransform="matrix(1 0 0 -1 0 63.2756)">
		<stop  offset="0" style="stop-color:#000000"/>
		<stop  offset="1" style="stop-color:#0058FF"/>
	</linearGradient>
	
		<circle style="opacity:0.2;fill:none;stroke:url(#SVGID_00000160872824775304603060000017379602414586979484_);stroke-width:3;enable-background:new    ;" cx="24.2" cy="21.8" r="19.6"/>
	<g>
		
			<linearGradient id="SVGID_00000041259076056482640260000014687933430494069695_" gradientUnits="userSpaceOnUse" x1="13.7553" y1="21.2967" x2="34.6771" y2="21.2967">
			<stop  offset="0" style="stop-color:#6B6B6B;stop-opacity:0"/>
			<stop  offset="0.9976" style="stop-color:#EEEEEE;stop-opacity:0.5"/>
		</linearGradient>
		<path style="fill:url(#SVGID_00000041259076056482640260000014687933430494069695_);" d="M24.2,14l2,4.2c0.2,0.5,0.7,0.8,1.2,0.9
			l4.6,0.7L28.8,23c-0.4,0.4-0.6,0.9-0.5,1.5l0.8,4.6L25,26.9c-0.2-0.1-0.5-0.2-0.8-0.2c-0.3,0-0.5,0.1-0.8,0.2l-4.1,2.2l0.8-4.6
			c0.1-0.5-0.1-1.1-0.5-1.5l-3.3-3.2l4.6-0.7c0.5-0.1,1-0.4,1.2-0.9L24.2,14 M24.2,11.3l-0.6,1.2l-2.5,5.1l0,0
			c-0.1,0.1-0.2,0.2-0.3,0.2l-5.6,0.8l-1.4,0.2l1,1l4.1,4l0,0c0.1,0.1,0.2,0.3,0.1,0.4c0,0,0,0,0,0l-1,5.6l-0.2,1.4l1.2-0.6l5-2.7
			c0,0,0,0,0,0c0.1,0,0.1-0.1,0.2-0.1s0.1,0,0.2,0.1h0l5,2.7l1.2,0.6l-0.2-1.4l-1-5.6c0,0,0,0,0,0c0,0,0,0,0,0c0-0.1,0-0.3,0.1-0.4
			l0,0l4.1-4l1-1l-1.4-0.2l-5.6-0.8c-0.1,0-0.3-0.1-0.3-0.2l-2.5-5.1L24.2,11.3L24.2,11.3z"/>
	</g>
</g>
</svg>
