<svg width="95" height="62" viewBox="0 0 95 62" fill="none" xmlns="http://www.w3.org/2000/svg">
<path d="M54.8971 48.9911L54.6665 47.4937L53.1714 47.7393L34.186 50.8579C32.8236 51.0817 31.5377 50.1586 31.3139 48.7962L26.8668 21.7235C26.643 20.361 27.5661 19.0751 28.9285 18.8513L66.426 12.6919C67.7885 12.4681 69.0744 13.3911 69.2982 14.7536L73.7452 41.8263C73.969 43.1887 73.046 44.4746 71.6835 44.6984L63.7795 45.9968L63.2651 46.0813L62.914 46.4665L55.7233 54.3554L54.8971 48.9911Z" stroke="#0943EC" stroke-width="3"/>
<path d="M7.22153 36.1841L7.07483 35.6139L6.5359 35.851L4.27815 36.844C4.11144 36.9173 3.90962 36.8423 3.83164 36.665C3.75367 36.4877 3.83479 36.2883 4.00149 36.215L6.51252 35.1106L6.90132 34.9395L6.79549 34.5282L6.27583 32.5084L6.12913 31.9382L5.5902 32.1753L2.77025 33.4156C2.60355 33.4889 2.40172 33.4139 2.32375 33.2366C2.24577 33.0593 2.32689 32.8599 2.4936 32.7865L5.56681 31.4349L5.95562 31.2639L5.84978 30.8525L5.07084 27.8251C5.07083 27.8251 5.07081 27.825 5.0708 27.825C5.02274 27.6375 5.13414 27.4559 5.31065 27.411L5.31069 27.411C5.488 27.3659 5.67611 27.4738 5.72434 27.6614L5.72435 27.6614L6.43382 30.419L6.58052 30.9891L7.11945 30.7521L8.96718 29.9394L9.35599 29.7684L9.25015 29.3571L8.47118 26.3296C8.47117 26.3296 8.47117 26.3295 8.47116 26.3295C8.42307 26.1424 8.53475 25.9603 8.71092 25.9156L8.71105 25.9155C8.88836 25.8704 9.07647 25.9784 9.1247 26.1659L9.12472 26.166L9.83418 28.9235L9.98088 29.4937L10.5198 29.2567L12.7776 28.2637C12.9443 28.1903 13.1461 28.2653 13.2241 28.4426C13.302 28.6199 13.2209 28.8194 13.0542 28.8927L10.5432 29.9971L10.1544 30.1681L10.2602 30.5794L10.7799 32.5992L10.9266 33.1694L11.4655 32.9324L14.2855 31.6921C14.4522 31.6188 14.654 31.6938 14.732 31.871C14.8099 32.0483 14.7288 32.2478 14.5621 32.3211L11.4889 33.6728L11.1001 33.8438L11.2059 34.2551L11.9849 37.2826C11.9849 37.2826 11.9849 37.2826 11.9849 37.2827C12.0279 37.45 11.9421 37.6151 11.7974 37.6787C11.7811 37.6859 11.7638 37.6919 11.7454 37.6966L11.745 37.6967C11.5677 37.7418 11.3796 37.6338 11.3314 37.4463L11.3314 37.4462L10.6219 34.6887L10.4752 34.1185L9.93627 34.3555L8.08854 35.1682L7.69973 35.3392L7.80557 35.7506L8.58453 38.778C8.58454 38.778 8.58455 38.7781 8.58455 38.7781C8.62753 38.9455 8.54175 39.1105 8.39704 39.1742C8.38069 39.1813 8.36345 39.1873 8.34506 39.192L8.34467 39.1921C8.16736 39.2372 7.97925 39.1293 7.93101 38.9417L7.931 38.9417L7.22153 36.1841ZM10.2639 35.304L10.8471 37.5708L8.46793 39.6767C8.51344 39.6652 8.55691 39.6501 8.59837 39.6319C8.96642 39.47 9.1731 39.059 9.06885 38.6535L8.28987 35.626L9.67373 35.0173L9.6533 34.9379L10.1376 34.8133L10.3389 35.271L10.2639 35.304ZM7.14289 31.4924L6.75409 31.6634L6.85992 32.0747L7.37958 34.0945L7.52628 34.6647L8.06521 34.4276L9.91294 33.615L10.3017 33.444L10.1959 33.0326L9.67625 31.0128L9.52955 30.4427L8.99062 30.6797L7.14289 31.4924Z" stroke="#0943EC" stroke-width="1.00014"/>
<mask id="path-3-inside-1_1076_347" fill="white">
<path d="M50.4968 18.9698C49.26 18.8593 48.2061 20.0032 48.4092 21.2395C48.631 22.5902 48.3567 23.9722 47.6371 25.13L45.5448 28.4907C45.3357 28.2602 45.0195 28.1368 44.6914 28.1906L39.6647 29.0163C39.1485 29.1012 38.7995 29.5918 38.885 30.1122L40.7581 41.5157C40.8436 42.0361 41.3312 42.3893 41.8475 42.3045L46.8742 41.4788C47.2519 41.4167 47.5392 41.1372 47.6332 40.788C48.7539 41.2478 49.9889 41.3931 51.1887 41.196L60.0723 39.7367C61.4298 39.5137 62.3545 38.1421 62.0666 36.7874C61.939 36.1875 60.6365 28.0645 60.6068 27.8843C60.3862 26.5409 59.1227 25.6259 57.7931 25.8443L53.1712 26.5892L53.2875 26.1011C53.8187 23.8703 53.2772 21.4736 51.8394 19.6896C51.5037 19.2728 51.0268 19.0173 50.4968 18.9698C51.0268 19.0173 49.9667 18.9224 50.4968 18.9698C51.0268 19.0173 49.2601 18.8593 50.4968 18.9698ZM45.6301 39.7477L42.4725 40.2664L40.9089 30.7474L44.0664 30.2287L45.6301 39.7477ZM58.0999 27.7292C58.4017 27.6797 58.6878 27.8868 58.7378 28.1911C58.7673 28.3704 58.8453 28.8573 58.9512 29.5175C59.5357 33.1622 60.0932 36.6135 60.214 37.1826C60.2577 37.3879 60.1806 37.5422 60.1307 37.616C60.0444 37.7434 59.9137 37.8272 59.7627 37.852L50.8791 39.3113C49.8202 39.4852 48.7231 39.2854 47.7895 38.7489L47.3434 38.4924L46.1355 31.1386L49.2431 26.1471C50.208 24.5946 50.5756 22.7427 50.2783 20.9324C50.2695 20.8791 50.3394 20.8534 50.3701 20.8909C51.4377 22.2153 51.8395 23.9945 51.4452 25.6506L50.9969 27.5331C50.9229 27.8437 51.0082 28.1712 51.2237 28.406C51.4395 28.6407 51.7572 28.7514 52.07 28.701L58.0999 27.7292Z"/>
</mask>
<path d="M50.4968 18.9698L51.2115 11.0018L51.209 11.0016L50.4968 18.9698ZM48.4092 21.2395L56.3034 19.9428L48.4092 21.2395ZM47.6371 25.13L54.4285 29.3581L54.4317 29.3529L47.6371 25.13ZM45.5448 28.4907L39.6189 33.8652L46.7366 41.713L52.3361 32.7189L45.5448 28.4907ZM44.6914 28.1906L45.9882 36.0849L45.9882 36.0849L44.6914 28.1906ZM39.6647 29.0163L38.368 21.1221L38.368 21.1221L39.6647 29.0163ZM38.885 30.1122L46.7792 28.8154L38.885 30.1122ZM40.7581 41.5157L32.8639 42.8124L40.7581 41.5157ZM41.8475 42.3045L43.1442 50.1987L43.1442 50.1987L41.8475 42.3045ZM46.8742 41.4788L45.5775 33.5846L45.5775 33.5846L46.8742 41.4788ZM47.6332 40.788L50.6697 33.3867L42.2701 29.9406L39.9086 38.7072L47.6332 40.788ZM51.1887 41.196L52.4854 49.0902L52.4854 49.0902L51.1887 41.196ZM60.0723 39.7367L58.7756 31.8425L58.7756 31.8425L60.0723 39.7367ZM62.0666 36.7874L69.8918 35.1243L69.8916 35.1231L62.0666 36.7874ZM60.6068 27.8843L68.501 26.5875L60.6068 27.8843ZM57.7931 25.8443L59.066 33.7424L59.0779 33.7405L59.0898 33.7385L57.7931 25.8443ZM53.1712 26.5892L45.3889 24.7357L42.6122 36.3942L54.4441 34.4873L53.1712 26.5892ZM53.2875 26.1011L61.0698 27.9546L61.0698 27.9545L53.2875 26.1011ZM51.8394 19.6896L45.6085 24.7072L45.6106 24.7099L51.8394 19.6896ZM45.6301 39.7477L46.9268 47.6419L54.821 46.3452L53.5243 38.451L45.6301 39.7477ZM42.4725 40.2664L34.5783 41.5631L35.875 49.4573L43.7692 48.1606L42.4725 40.2664ZM40.9089 30.7474L39.6121 22.8532L31.7179 24.1499L33.0147 32.0441L40.9089 30.7474ZM44.0664 30.2287L51.9606 28.932L50.6639 21.0378L42.7697 22.3345L44.0664 30.2287ZM58.0999 27.7292L59.3728 35.6273L59.3847 35.6254L59.3966 35.6234L58.0999 27.7292ZM58.7378 28.1911L50.8436 29.4879L58.7378 28.1911ZM58.9512 29.5175L66.8503 28.2507L66.8503 28.2506L58.9512 29.5175ZM60.214 37.1826L52.3886 38.8446L52.3893 38.8482L60.214 37.1826ZM60.1307 37.616L66.7552 42.1012L66.7591 42.0953L60.1307 37.616ZM59.7627 37.852L61.0594 45.7462L61.0594 45.7462L59.7627 37.852ZM50.8791 39.3113L49.5824 31.4171L49.5824 31.4171L50.8791 39.3113ZM47.7895 38.7489L43.8019 45.6842L43.8029 45.6848L47.7895 38.7489ZM47.3434 38.4924L39.4492 39.7891L40.0646 43.5354L43.3558 45.4277L47.3434 38.4924ZM46.1355 31.1386L39.3441 26.9104L37.7534 29.4655L38.2413 32.4354L46.1355 31.1386ZM49.2431 26.1471L56.0344 30.3753L56.0377 30.3701L49.2431 26.1471ZM50.2783 20.9324L42.3841 22.2291L50.2783 20.9324ZM50.3701 20.8909L56.5986 15.8703L56.5791 15.8462L56.5595 15.8223L50.3701 20.8909ZM51.4452 25.6506L59.2276 27.5037L59.2276 27.5036L51.4452 25.6506ZM50.9969 27.5331L58.7791 29.3873L58.7793 29.3861L50.9969 27.5331ZM51.2237 28.406L45.3307 33.8164L45.3343 33.8202L51.2237 28.406ZM52.07 28.701L53.3413 36.5994L53.3428 36.5991L52.07 28.701ZM51.2088 11.0015C44.6851 10.4187 39.4776 16.2212 40.515 22.5362L56.3034 19.9428C56.9345 23.7852 53.835 27.2999 49.7849 26.9381L51.2088 11.0015ZM40.515 22.5362C40.424 21.9826 40.5348 21.402 40.8425 20.9071L54.4317 29.3529C56.1785 26.5423 56.8381 23.1979 56.3034 19.9428L40.515 22.5362ZM40.8457 20.9018L38.7534 24.2626L52.3361 32.7189L54.4285 29.3581L40.8457 20.9018ZM51.4706 23.1163C49.5345 20.9816 46.5414 19.7796 43.3947 20.2964L45.9882 36.0849C43.4977 36.4939 41.1368 35.5388 39.6189 33.8652L51.4706 23.1163ZM43.3947 20.2964L38.368 21.1221L40.9615 36.9106L45.9882 36.0849L43.3947 20.2964ZM38.368 21.1221C33.4301 21.9333 30.1993 26.5907 30.9907 31.4089L46.7792 28.8154C47.3996 32.5928 44.8669 36.269 40.9615 36.9106L38.368 21.1221ZM30.9907 31.4089L32.8639 42.8124L48.6523 40.219L46.7792 28.8154L30.9907 31.4089ZM32.8639 42.8124C33.6554 47.6306 38.2063 51.0098 43.1442 50.1987L40.5508 34.4103C44.4562 33.7687 48.0319 36.4416 48.6523 40.219L32.8639 42.8124ZM43.1442 50.1987L48.1709 49.373L45.5775 33.5846L40.5508 34.4103L43.1442 50.1987ZM48.1709 49.373C51.8008 48.7767 54.4889 46.0949 55.3579 42.8688L39.9086 38.7072C40.5895 36.1794 42.7029 34.0567 45.5775 33.5846L48.1709 49.373ZM44.5967 48.1894C47.0707 49.2043 49.8047 49.5305 52.4854 49.0902L49.892 33.3018C50.173 33.2556 50.4371 33.2913 50.6697 33.3867L44.5967 48.1894ZM52.4854 49.0902L61.369 47.6309L58.7756 31.8425L49.892 33.3018L52.4854 49.0902ZM61.369 47.6309C67.309 46.6552 71.1121 40.866 69.8918 35.1243L54.2414 38.4505C53.5969 35.4183 55.5506 32.3723 58.7756 31.8425L61.369 47.6309ZM69.8916 35.1231C69.9088 35.2038 69.8439 34.8434 69.6814 33.8618C69.543 33.026 69.369 31.9589 69.1967 30.8973C68.858 28.8095 68.5165 26.6814 68.501 26.5875L52.7126 29.181C52.7118 29.1761 52.7158 29.2003 52.7285 29.2792C52.7395 29.3481 52.755 29.4442 52.7744 29.5648C52.8131 29.8054 52.867 30.1405 52.9313 30.5394C53.0598 31.3371 53.2299 32.3914 53.4032 33.4596C53.7176 35.3974 54.1243 37.8997 54.2416 38.4517L69.8916 35.1231ZM68.501 26.5875C67.5754 20.9521 62.2532 17.0045 56.4964 17.9501L59.0898 33.7385C55.9921 34.2474 53.197 32.1297 52.7126 29.181L68.501 26.5875ZM56.5202 17.9462L51.8983 18.6911L54.4441 34.4873L59.066 33.7424L56.5202 17.9462ZM60.9535 28.4427L61.0698 27.9546L45.5051 24.2476L45.3889 24.7357L60.9535 28.4427ZM61.0698 27.9545C62.1742 23.3171 61.0605 18.3821 58.0681 14.6694L45.6106 24.7099C45.5404 24.6227 45.511 24.546 45.4984 24.4904C45.4859 24.4349 45.4797 24.3542 45.5051 24.2477L61.0698 27.9545ZM58.0703 14.6721C56.3791 12.5719 53.9148 11.2443 51.2115 11.0018L49.7822 26.9378C48.1387 26.7904 46.6283 25.9736 45.6085 24.7072L58.0703 14.6721ZM51.2087 11.0015C51.1424 10.9956 51.1002 10.9919 51.0766 10.9897C51.0706 10.9892 51.0655 10.9888 51.0613 10.9884C51.0592 10.9882 51.0572 10.988 51.0552 10.9878C51.0534 10.9877 51.051 10.9875 51.0485 10.9872C51.0472 10.9871 51.0452 10.987 51.0428 10.9868C51.0416 10.9866 51.0399 10.9865 51.0379 10.9863C51.036 10.9862 51.0327 10.9859 51.0285 10.9855C51.0266 10.9853 51.0222 10.985 51.0197 10.9848C51.0162 10.9845 51.0078 10.9838 51.0029 10.9833C50.995 10.9827 50.9728 10.9809 50.9585 10.9798C50.9241 10.9772 50.6966 10.9639 50.5032 10.9577C42.3698 18.3108 49.3469 26.8938 49.4792 26.9093C49.5087 26.9125 49.5512 26.9168 49.5642 26.9181C49.5715 26.9188 49.5835 26.9199 49.5882 26.9204C49.5915 26.9207 49.5972 26.9212 49.5996 26.9215C49.6046 26.9219 49.6086 26.9223 49.6107 26.9225C49.613 26.9227 49.6149 26.9229 49.6162 26.923C49.6188 26.9232 49.621 26.9234 49.6222 26.9236C49.6248 26.9238 49.6272 26.924 49.6289 26.9241C49.6351 26.9247 49.6441 26.9255 49.6536 26.9264C49.6636 26.9273 49.6758 26.9284 49.6895 26.9296C49.7167 26.932 49.7502 26.935 49.7835 26.938C49.8168 26.941 49.8502 26.944 49.8775 26.9464C49.8912 26.9476 49.9034 26.9487 49.9134 26.9496C49.9229 26.9505 49.9319 26.9513 49.9382 26.9518C49.9398 26.952 49.9422 26.9522 49.9448 26.9524C49.946 26.9525 49.9482 26.9527 49.9507 26.9529C49.952 26.9531 49.954 26.9532 49.9563 26.9534C49.9583 26.9536 49.9622 26.9539 49.9672 26.9544C49.9696 26.9546 49.9751 26.955 49.9783 26.9553C49.9829 26.9557 49.9946 26.9567 50.0017 26.9572C50.0141 26.9582 50.0541 26.9613 50.0818 26.9634C50.1955 26.9706 58.6039 19.839 52.0167 11.1012C51.7781 11.0635 51.5014 11.029 51.4643 11.0251C51.4493 11.0236 51.4262 11.0213 51.418 11.0205C51.4129 11.02 51.4043 11.0192 51.4008 11.0189C51.3982 11.0186 51.3937 11.0182 51.3917 11.018C51.3875 11.0176 51.3842 11.0173 51.3823 11.0172C51.3802 11.017 51.3785 11.0168 51.3773 11.0167C51.3749 11.0165 51.3729 11.0163 51.3716 11.0162C51.369 11.0159 51.3666 11.0157 51.3648 11.0156C51.3629 11.0154 51.3608 11.0152 51.3588 11.015C51.3546 11.0146 51.3495 11.0142 51.3435 11.0136C51.3199 11.0115 51.2777 11.0077 51.2115 11.0018L49.7822 26.9378C49.8484 26.9438 49.8891 26.9474 49.9109 26.9494C49.9164 26.9499 49.9203 26.9502 49.9231 26.9505C49.9244 26.9506 49.9253 26.9507 49.9258 26.9507C49.9264 26.9508 49.9259 26.9507 49.9248 26.9506C49.9242 26.9506 49.9228 26.9504 49.9209 26.9503C49.9199 26.9502 49.9183 26.95 49.9164 26.9499C49.9148 26.9497 49.9115 26.9494 49.9074 26.949C49.9055 26.9489 49.9011 26.9484 49.8986 26.9482C49.8951 26.9479 49.8865 26.9471 49.8815 26.9466C49.8733 26.9458 49.8502 26.9435 49.8353 26.942C49.7982 26.9381 49.5215 26.9036 49.2829 26.8659C42.6956 18.1281 51.104 10.9965 51.2178 11.0037C51.2454 11.0057 51.2855 11.0088 51.2978 11.0098C51.3049 11.0104 51.3165 11.0114 51.3211 11.0118C51.3242 11.012 51.3297 11.0125 51.3321 11.0127C51.3369 11.0131 51.3407 11.0134 51.3426 11.0136C51.3447 11.0138 51.3465 11.0139 51.3476 11.014C51.3497 11.0142 51.3513 11.0144 51.3519 11.0144C51.3533 11.0145 51.354 11.0146 51.3535 11.0146C51.3515 11.0144 51.346 11.0139 51.3363 11.013C51.3272 11.0122 51.3156 11.0112 51.3023 11.01C51.2758 11.0076 51.2429 11.0047 51.21 11.0017C51.1771 10.9988 51.1442 10.9958 51.1177 10.9935C51.1044 10.9923 51.0928 10.9912 51.0837 10.9904C51.074 10.9895 51.0685 10.9891 51.0665 10.9889C51.0661 10.9888 51.0668 10.9889 51.0681 10.989C51.0688 10.9891 51.0704 10.9892 51.0725 10.9894C51.0736 10.9895 51.0754 10.9897 51.0775 10.9899C51.0794 10.99 51.0833 10.9904 51.0882 10.9909C51.0906 10.9911 51.0962 10.9916 51.0995 10.9919C51.1041 10.9924 51.1161 10.9935 51.1234 10.9942C51.1363 10.9955 51.1788 10.9999 51.2084 11.003C51.3407 11.0185 58.3177 19.6015 50.1844 26.9546C49.991 26.9484 49.7634 26.9351 49.729 26.9325C49.7147 26.9314 49.6926 26.9296 49.6848 26.929C49.6798 26.9286 49.6715 26.9279 49.6681 26.9276C49.6656 26.9274 49.6613 26.927 49.6594 26.9268C49.6553 26.9265 49.6522 26.9262 49.6505 26.9261C49.6486 26.9259 49.6471 26.9258 49.6461 26.9257C49.6442 26.9255 49.6428 26.9254 49.6423 26.9253C49.6411 26.9252 49.6406 26.9252 49.6413 26.9252C49.6418 26.9253 49.6426 26.9254 49.644 26.9255C49.6468 26.9257 49.6507 26.9261 49.6561 26.9266C49.678 26.9285 49.7187 26.9322 49.785 26.9381L51.2087 11.0015ZM51.209 11.0016C51.0543 10.9877 50.9465 10.9781 50.8752 10.9717C50.8395 10.9686 50.8128 10.9662 50.7939 10.9645C50.7845 10.9636 50.7768 10.963 50.7708 10.9624C50.7678 10.9622 50.7651 10.9619 50.7627 10.9617C50.7605 10.9615 50.7579 10.9613 50.7555 10.9611C50.7543 10.961 50.7523 10.9608 50.7501 10.9606C50.7489 10.9605 50.7471 10.9603 50.7448 10.9601C50.7437 10.96 50.7414 10.9598 50.7401 10.9597C50.7383 10.9596 50.7341 10.9592 50.7317 10.959C50.7279 10.9587 50.718 10.9578 50.7118 10.9573C50.6989 10.9562 50.6446 10.952 50.603 10.949C42.1465 17.6758 48.6536 26.8073 49.2092 26.8856C49.2391 26.8887 49.2796 26.8927 49.2902 26.8938C49.2957 26.8943 49.3045 26.8951 49.3079 26.8954C49.3101 26.8956 49.314 26.896 49.3157 26.8961C49.319 26.8964 49.3217 26.8967 49.3231 26.8968C49.3259 26.8971 49.3282 26.8973 49.3294 26.8974C49.3308 26.8975 49.3321 26.8976 49.3332 26.8977C49.3353 26.8979 49.3376 26.8981 49.3398 26.8983C49.3486 26.8991 49.3624 26.9004 49.3793 26.9019C49.4136 26.9049 49.4636 26.9094 49.5189 26.9144C49.6294 26.9242 49.7626 26.9362 49.8352 26.9426C49.8533 26.9442 49.8684 26.9456 49.8788 26.9465C49.8814 26.9468 49.8841 26.947 49.8865 26.9472C49.8887 26.9474 49.8919 26.9477 49.8954 26.948C49.8969 26.9481 49.9002 26.9484 49.9042 26.9488C49.9061 26.9489 49.9098 26.9492 49.9144 26.9496C49.9166 26.9498 49.9218 26.9503 49.9247 26.9505C49.9289 26.9509 49.9396 26.9518 49.9461 26.9523C49.9575 26.9532 49.9938 26.9561 50.0189 26.9579C50.119 26.9646 58.5512 19.8515 51.9609 11.0958C51.7196 11.0579 51.4419 11.0235 51.4065 11.0198C51.3924 11.0184 51.3706 11.0163 51.3629 11.0155C51.3581 11.0151 51.35 11.0143 51.3467 11.014C51.3443 11.0138 51.3401 11.0134 51.3382 11.0132C51.3343 11.0128 51.3311 11.0126 51.3293 11.0124C51.3256 11.0121 51.3226 11.0118 51.321 11.0116C51.3192 11.0115 51.3175 11.0113 51.3161 11.0112C51.3134 11.0109 51.3105 11.0107 51.3078 11.0104C51.3022 11.0099 51.2951 11.0093 51.2866 11.0085C51.2694 11.007 51.2447 11.0048 51.2115 11.0018L49.7822 26.9378C49.8152 26.9408 49.8388 26.9429 49.8546 26.9443C49.8625 26.945 49.8681 26.9455 49.8716 26.9459C49.8725 26.9459 49.8731 26.946 49.8736 26.946C49.8738 26.9461 49.874 26.9461 49.8741 26.9461C49.8743 26.9461 49.8743 26.9461 49.8743 26.9461C49.8743 26.9461 49.8742 26.9461 49.874 26.9461C49.8738 26.9461 49.8735 26.946 49.8731 26.946C49.8725 26.9459 49.8703 26.9457 49.8672 26.9455C49.8657 26.9453 49.8628 26.945 49.859 26.9447C49.8573 26.9445 49.8531 26.9441 49.8508 26.9439C49.8476 26.9436 49.8396 26.9429 49.8348 26.9424C49.8272 26.9417 49.8055 26.9395 49.7914 26.9381C49.756 26.9345 49.4783 26.9001 49.237 26.8622C42.6467 18.1065 51.0788 10.9934 51.179 11C51.204 11.0019 51.2403 11.0047 51.2516 11.0057C51.2581 11.0062 51.2687 11.0071 51.2729 11.0074C51.2758 11.0077 51.2808 11.0081 51.283 11.0083C51.2874 11.0087 51.2909 11.009 51.2925 11.0091C51.296 11.0094 51.2985 11.0096 51.2991 11.0097C51.3007 11.0098 51.3014 11.0099 51.3004 11.0098C51.2996 11.0097 51.2984 11.0096 51.2965 11.0095C51.2887 11.0088 51.2756 11.0076 51.2577 11.006C51.1868 10.9997 51.055 10.9879 50.9447 10.978C50.8896 10.9731 50.8402 10.9687 50.8068 10.9657C50.7899 10.9642 50.7779 10.9631 50.7713 10.9625C50.7697 10.9623 50.7688 10.9623 50.7685 10.9622C50.7683 10.9622 50.7685 10.9622 50.769 10.9623C50.7693 10.9623 50.771 10.9625 50.7733 10.9627C50.7743 10.9628 50.7768 10.963 50.78 10.9633C50.7816 10.9634 50.7854 10.9638 50.7876 10.964C50.7909 10.9643 50.7997 10.9651 50.8051 10.9656C50.8157 10.9666 50.8562 10.9707 50.886 10.9737C51.4416 11.0521 57.9487 20.1836 49.4923 26.9104C49.4507 26.9074 49.3963 26.9031 49.3835 26.9021C49.3773 26.9016 49.3674 26.9007 49.3638 26.9004C49.3614 26.9002 49.3573 26.8998 49.3556 26.8997C49.3544 26.8996 49.3521 26.8994 49.3512 26.8993C49.3491 26.8991 49.3475 26.899 49.3467 26.8989C49.345 26.8988 49.3439 26.8987 49.3438 26.8987C49.3434 26.8986 49.3437 26.8987 49.3452 26.8988C49.3466 26.8989 49.3485 26.8991 49.351 26.8993C49.356 26.8998 49.363 26.9004 49.3721 26.9012C49.3903 26.9028 49.4164 26.9051 49.4518 26.9083C49.5227 26.9146 49.6302 26.9242 49.7847 26.938L51.209 11.0016ZM44.3333 31.8535L41.1757 32.3722L43.7692 48.1606L46.9268 47.6419L44.3333 31.8535ZM50.3667 38.9697L48.8031 29.4507L33.0147 32.0441L34.5783 41.5631L50.3667 38.9697ZM42.2056 38.6416L45.3632 38.1229L42.7697 22.3345L39.6121 22.8532L42.2056 38.6416ZM36.1722 31.5255L37.7359 41.0444L53.5243 38.451L51.9606 28.932L36.1722 31.5255ZM59.3966 35.6234C55.2775 36.3001 51.4997 33.482 50.8436 29.4879L66.632 26.8944C65.876 22.2916 61.5259 19.0592 56.8032 19.835L59.3966 35.6234ZM50.8436 29.4879C50.8699 29.6476 50.9442 30.1111 51.0522 30.7844L66.8503 28.2506C66.7465 27.6035 66.6647 27.0933 66.632 26.8944L50.8436 29.4879ZM51.0521 30.7842C51.6049 34.2313 52.2125 38.0155 52.3886 38.8446L68.0395 35.5205C68.0502 35.5709 68.0213 35.4252 67.9345 34.9149C67.8603 34.4789 67.7641 33.8994 67.6513 33.2107C67.4262 31.8355 67.1425 30.0731 66.8503 28.2507L51.0521 30.7842ZM52.3893 38.8482C51.8173 36.161 52.8582 34.0899 53.5024 33.1366L66.7591 42.0953C67.503 40.9946 68.6982 38.6148 68.0387 35.5169L52.3893 38.8482ZM53.5063 33.1308C54.6456 31.4482 56.4365 30.2912 58.466 29.9578L61.0594 45.7462C63.391 45.3632 65.4433 44.0387 66.7552 42.1012L53.5063 33.1308ZM58.466 29.9578L49.5824 31.4171L52.1759 47.2055L61.0594 45.7462L58.466 29.9578ZM49.5824 31.4171C50.3495 31.2911 51.1179 31.4346 51.7762 31.813L43.8029 45.6848C46.3283 47.1363 49.2909 47.6794 52.1759 47.2055L49.5824 31.4171ZM51.7771 31.8135L51.331 31.557L43.3558 45.4277L43.8019 45.6842L51.7771 31.8135ZM55.2376 37.1956L54.0297 29.8419L38.2413 32.4354L39.4492 39.7891L55.2376 37.1956ZM52.9268 35.3668L56.0344 30.3753L42.4517 21.919L39.3441 26.9104L52.9268 35.3668ZM56.0377 30.3701C58.0297 27.1651 58.7827 23.3507 58.1725 19.6356L42.3841 22.2291C42.3686 22.1347 42.3863 22.0242 42.4485 21.9242L56.0377 30.3701ZM58.1725 19.6356C58.8764 23.9211 56.1407 27.1198 53.3743 28.2672C50.8757 29.3035 46.8704 29.244 44.1808 25.9596L56.5595 15.8223C53.8391 12.5004 49.7835 12.4349 47.2445 13.488C44.4376 14.6522 41.6714 17.8903 42.3841 22.2291L58.1725 19.6356ZM44.1417 25.9116C43.654 25.3065 43.4842 24.5472 43.6627 23.7976L59.2276 27.5036C60.1947 23.4418 59.2213 19.1241 56.5986 15.8703L44.1417 25.9116ZM43.6627 23.7975L43.2145 25.68L58.7793 29.3861L59.2276 27.5037L43.6627 23.7975ZM43.2148 25.6788C42.525 28.5739 43.3176 31.6237 45.3307 33.8164L57.1168 22.9956C58.6987 24.7187 59.3209 27.1134 58.7791 29.3873L43.2148 25.6788ZM45.3343 33.8202C47.3561 36.0195 50.3579 37.0796 53.3413 36.5994L50.7986 20.8027C53.1564 20.4232 55.523 21.2619 57.1132 22.9917L45.3343 33.8202ZM53.3428 36.5991L59.3728 35.6273L56.827 19.8311L50.7971 20.8029L53.3428 36.5991Z" fill="#0943EC" mask="url(#path-3-inside-1_1076_347)"/>
<path d="M81.1732 15.2263C81.1732 15.2263 75.5241 8.44423 78.3189 3.6035C81.1138 -1.23724 87.9419 3.50258 85.7162 7.35768C88.0029 3.39698 95.488 6.83392 92.7848 11.5161C90.0815 16.1983 81.1732 15.2263 81.1732 15.2263Z" stroke="#0943EC" stroke-width="2" stroke-linejoin="round"/>
</svg>
