<?xml version="1.0" encoding="utf-8"?>
<!-- Generator: Adobe Illustrator 27.9.0, SVG Export Plug-In . SVG Version: 6.00 Build 0)  -->
<svg version="1.1" id="b" xmlns="http://www.w3.org/2000/svg" xmlns:xlink="http://www.w3.org/1999/xlink" x="0px" y="0px"
	 viewBox="0 0 111 133" style="enable-background:new 0 0 111 133;" xml:space="preserve">
<style type="text/css">
	
		.st0{opacity:0.5;fill:none;stroke:#FFFFFF;stroke-width:9.05;stroke-linecap:round;stroke-linejoin:round;enable-background:new    ;}
	.st1{opacity:0.5;fill:#FFFFFF;stroke:#FFFFFF;stroke-width:1.32;enable-background:new    ;}
	.st2{opacity:0.5;fill:#FFFFFF;enable-background:new    ;}
	.st3{opacity:0.5;fill-rule:evenodd;clip-rule:evenodd;fill:#FFFFFF;enable-background:new    ;}
</style>
<path class="st0" d="M78.5,106.8l-0.8,0.2l-0.7,0.7l-12.3,13.5l-1.4-9.2l-0.3-2.6l-2.6,0.3L27.9,115c-2.4,0.3-4.4-1.2-5-3.6
	l-7.5-46.3c-0.3-2.4,1.2-4.4,3.6-5l64-10.6c2.4-0.3,4.4,1.2,4.9,3.6l7.5,46.3c0.3,2.4-1.2,4.4-3.6,4.9L78.5,106.8L78.5,106.8z"/>
<path class="st1" d="M19.5,42l-0.6-0.5l-0.4,0.6L17,45c-0.1,0.3-0.4,0.3-0.6,0.1c-0.3-0.1-0.3-0.4-0.2-0.7l1.7-3.2l0.2-0.5l-0.4-0.3
	l-2.2-1.7L15,38.2l-0.4,0.6l-1.9,3.5c-0.1,0.3-0.4,0.3-0.6,0.1c-0.3-0.1-0.3-0.4-0.2-0.7l2.1-4l0.3,0.1l-0.4-0.3l-3.3-2.5l0,0
	c-0.2-0.2-0.2-0.5-0.1-0.6l0,0c0.2-0.2,0.5-0.2,0.7,0l0,0l3,2.3l0.5,0.2l0.4-0.6l1.2-2.5l0.2-0.5L16,33.1l-3.3-2.5l0,0
	c-0.2-0.2-0.2-0.5-0.1-0.6l0,0c0.2-0.2,0.5-0.2,0.7,0l0,0l3,2.3l0.6,0.5l0.4-0.6l1.6-2.9c0.1-0.3,0.4-0.3,0.6-0.1
	c0.3,0.1,0.3,0.4,0.2,0.7l-1.7,2.9l-0.2,0.5l0.4,0.3l2.2,1.7l0.6,0.5l0.4-0.6l1.9-3.5c0.1-0.3,0.4-0.3,0.6-0.1
	c0.3,0.1,0.3,0.4,0.2,0.7l-2.1,4l-0.2,0.5l0.4,0.3l3.3,2.5l0,0c0.2,0.2,0.2,0.3,0.1,0.6l-0.1,0.1l0,0c-0.2,0.2-0.5,0.2-0.7,0l0,0
	l-3-2.3L21,37.4l-0.4,0.6l-1.2,2.3l-0.2,0.5l0.4,0.3l3.3,2.5l0,0c0.2,0.2,0.2,0.3,0.1,0.6L23,44.4l0,0c-0.2,0.2-0.5,0.2-0.7,0l0,0
	L19.5,42L19.5,42z M15.6,37.2l-0.2,0.5l0.4,0.3l2.2,1.7l0.6,0.5l0.4-0.6l1.2-2.3l0.2-0.5L20,36.2l-2.2-1.7L17.2,34l-0.4,0.8
	L15.6,37.2L15.6,37.2z"/>
<path class="st2" d="M81.9,29.9c0,0-8.7-10.6-4.5-18c4.3-7.5,14.9-0.2,11.5,5.9c3.6-6.2,15.2-0.8,11,6.5
	C95.7,31.4,81.9,29.9,81.9,29.9L81.9,29.9z"/>
<path class="st3" d="M67,77c0.4,0,0.9,0.3,0.9,0.8c0,0.3,0.2,1.1,0.3,2c0.9,5.4,1.7,10.7,2,11.6c0,0.3,0,0.6-0.2,0.6
	c-0.2,0.2-0.3,0.3-0.6,0.3L56,94.5c-1.7,0.3-3.3,0-4.7-0.9l-0.6-0.4L48.9,82l4.7-7.6c1.5-2.4,2-5.1,1.5-7.8c0-0.2,0.2-0.2,0.2,0
	c1.7,2,2.3,4.7,1.7,7.2l-0.6,2.9c-0.2,0.4,0,0.9,0.3,1.4c0.3,0.3,0.8,0.4,1.2,0.4L67,77L67,77z M48.1,95.1l-4.8,0.8l-2.4-14.3
	l4.8-0.8C45.7,80.8,48.1,95.1,48.1,95.1z M55.5,63.7c-1.8-0.2-3.5,1.5-3.2,3.5c0.3,2.1-0.2,4.1-1.2,5.9L48,78.2
	c-0.3-0.3-0.8-0.6-1.4-0.4L39.1,79c-0.8,0.2-1.4,0.9-1.2,1.7l2.9,17.2c0.2,0.8,0.9,1.4,1.7,1.2l7.5-1.2c0.6-0.2,1.1-0.4,1.2-1.1
	c1.7,0.8,3.6,0.9,5.4,0.6L70,95.1c2.1-0.3,3.5-2.4,3-4.4c-0.2-0.9-2.1-13.1-2.3-13.4c-0.3-2-2.3-3.5-4.2-3l-6.9,1.1l0.2-0.8
	c0.8-3.3,0-6.9-2.1-9.7C57.1,64.2,56.3,63.9,55.5,63.7C56.3,63.9,54.8,63.7,55.5,63.7C56.3,63.9,53.7,63.6,55.5,63.7L55.5,63.7z"/>
</svg>
