<?xml version="1.0" encoding="utf-8"?>
<!-- Generator: Adobe Illustrator 27.9.0, SVG Export Plug-In . SVG Version: 6.00 Build 0)  -->
<svg version="1.1" id="b" xmlns="http://www.w3.org/2000/svg" xmlns:xlink="http://www.w3.org/1999/xlink" x="0px" y="0px"
	 viewBox="0 0 132.9 133" style="enable-background:new 0 0 132.9 133;" xml:space="preserve">
<style type="text/css">
	.st0{opacity:0.5;fill:none;stroke:#F2F2F2;stroke-width:7.36;enable-background:new    ;}
	.st1{opacity:0.5;fill:none;stroke:#F2F2F2;stroke-width:4.91;enable-background:new    ;}
	.st2{opacity:0.5;fill:#EEEEEE;stroke:#F2F2F2;stroke-miterlimit:10;enable-background:new    ;}
	.st3{opacity:0.5;fill:#EEEEEE;stroke:#F2F2F2;stroke-width:1.86;enable-background:new    ;}
	.st4{opacity:0.5;fill:#EEEEEE;stroke:#F2F2F2;stroke-width:1.35;enable-background:new    ;}
	.st5{opacity:0.5;fill:#EEEEEE;stroke:#EEEEEE;stroke-width:1.35;enable-background:new    ;}
</style>
<path class="st0" d="M14.2,5.5h105.6c3.4,0,6.1,2.8,6.1,6.1v110.5c0,3.4-2.8,6.1-6.1,6.1H14.2c-3.4,0-6.1-2.8-6.1-6.1V11.7
	C8.1,8.3,10.9,5.5,14.2,5.5z"/>
<path class="st1" d="M22.1,39.5h90.1c1.4,0,2.4,1.1,2.4,2.5v14.4c0,1.4-1.1,2.5-2.4,2.5H22.1c-1.4,0-2.5-1.1-2.5-2.5V42
	C19.7,40.6,20.8,39.5,22.1,39.5z"/>
<path class="st1" d="M22.1,78.5h35.6c1.4,0,2.5,1.1,2.5,2.4v28.5c0,1.4-1.1,2.4-2.5,2.4H22.1c-1.4,0-2.5-1.1-2.5-2.4V80.9
	C19.7,79.6,20.8,78.5,22.1,78.5z"/>
<path class="st1" d="M76.7,78.5h35.6c1.4,0,2.4,1.1,2.4,2.4v28.5c0,1.4-1.1,2.4-2.4,2.4H76.7c-1.4,0-2.4-1.1-2.4-2.4V80.9
	C74.2,79.6,75.3,78.5,76.7,78.5z"/>
<rect x="12.3" y="24" class="st2" width="109.4" height="2.5"/>
<path class="st3" d="M106.1,15.1h8.9c0.5,0,0.9,0.4,0.9,0.9l0,0c0,0.5-0.4,0.9-0.9,0.9h-8.9c-0.5,0-0.9-0.4-0.9-0.9l0,0
	C105.2,15.5,105.6,15.1,106.1,15.1z"/>
<path class="st3" d="M82.4,15.1h19.2c0.5,0,0.9,0.4,0.9,0.9l0,0c0,0.5-0.4,0.9-0.9,0.9H82.4c-0.5,0-0.9-0.4-0.9-0.9l0,0
	C81.5,15.5,81.9,15.1,82.4,15.1z"/>
<circle class="st4" cx="76.7" cy="16" r="1.2"/>
<circle class="st5" cx="19.1" cy="16" r="1.2"/>
<circle class="st5" cx="23.9" cy="16" r="1.2"/>
<circle class="st5" cx="28.6" cy="16" r="1.2"/>
</svg>
