<?xml version="1.0" encoding="utf-8"?>
<!-- Generator: Adobe Illustrator 27.9.0, SVG Export Plug-In . SVG Version: 6.00 Build 0)  -->
<svg version="1.1" id="a" xmlns="http://www.w3.org/2000/svg" xmlns:xlink="http://www.w3.org/1999/xlink" x="0px" y="0px"
	 viewBox="0 0 111 133" style="enable-background:new 0 0 111 133;" xml:space="preserve">
<style type="text/css">
	.st0{opacity:0.5;}
	.st1{fill:none;stroke:#FFFFFF;stroke-width:8;}
	.st2{opacity:0.5;fill:#FFFFFF;enable-background:new    ;}
</style>
<g class="st0">
	<path class="st1" d="M83.6,73.5l20.6,35.3l-16.5,0.7l-8,14.5L60.3,87.1C60.3,87.1,74,84.8,83.6,73.5L83.6,73.5z"/>
	<path class="st1" d="M20.3,73.5L6.8,114.7l16.2-3l11,12.3l12.5-36.5C28.8,84.5,20.3,73.5,20.3,73.5L20.3,73.5L20.3,73.5z"/>
	<path class="st1" d="M52.1,87.9c23.2,0,42-18.8,42-42S75.3,4,52.1,4s-42,18.8-42,42S28.9,87.9,52.1,87.9z"/>
</g>
<path class="st2" d="M75.6,40.3c-0.3-0.8-0.9-1.3-1.7-1.4l-13.8-2L54,24.4c-0.7-1.6-3.1-1.6-3.8,0l-6.1,12.5l-13.8,2
	c-1.7,0.2-2.5,2.5-1.1,3.6l10,9.7l-2.4,13.8c-0.4,1.7,1.6,3.1,3.1,2.3l12.4-6.5l12.4,6.5c1.5,0.8,3.4-0.6,3.1-2.3L65,52.2l10-9.7
	C75.6,41.9,75.9,41,75.6,40.3L75.6,40.3z M61.2,49.9c-0.5,0.5-0.8,1.2-0.6,1.9l1.8,10.7l-9.5-5c-0.7-0.3-1.3-0.3-2,0l-9.5,5
	l1.8-10.7c0.1-0.7-0.1-1.4-0.6-1.9l-7.7-7.5l10.7-1.5c0.7-0.1,1.3-0.6,1.6-1.1l4.7-9.7l4.7,9.7c0.3,0.7,0.9,1,1.6,1.1l10.7,1.5
	L61.2,49.9L61.2,49.9z"/>
</svg>
