<?xml version="1.0" encoding="utf-8"?>
<!-- Generator: Adobe Illustrator 27.9.0, SVG Export Plug-In . SVG Version: 6.00 Build 0)  -->
<svg version="1.1" id="b" xmlns="http://www.w3.org/2000/svg" xmlns:xlink="http://www.w3.org/1999/xlink" x="0px" y="0px"
	 viewBox="0 0 111 133" style="enable-background:new 0 0 111 133;" xml:space="preserve">
<style type="text/css">
	
		.st0{opacity:0.5;fill:none;stroke:#F2F2F2;stroke-width:5.28;stroke-linecap:round;stroke-linejoin:round;enable-background:new    ;}
	
		.st1{opacity:0.5;fill:none;stroke:#F2F2F2;stroke-width:7.91;stroke-linecap:round;stroke-linejoin:round;enable-background:new    ;}
	.st2{opacity:0.5;fill:url(#SVGID_1_);stroke:#F2F2F2;stroke-miterlimit:10;enable-background:new    ;}
	.st3{opacity:0.5;fill:none;stroke:#F2F2F2;stroke-width:7.91;enable-background:new    ;}
</style>
<path class="st0" d="M42.2,30.7l-9.8,7.4l7.4,9.8"/>
<path class="st0" d="M62,48.6l9.5-7.7l-7.7-9.2"/>
<path class="st0" d="M47.5,53.4l10-29.8"/>
<path class="st1" d="M31.7,79.2H85 M31.7,91.6H85 M31.7,66.8h31.1"/>
<linearGradient id="SVGID_1_" gradientUnits="userSpaceOnUse" x1="55.97" y1="-434.42" x2="55.97" y2="-423.86" gradientTransform="matrix(1 0 0 -1 0 -314.72)">
	<stop  offset="0" style="stop-color:#6B6B6B;stop-opacity:0.1"/>
	<stop  offset="1" style="stop-color:#EEEEEE;stop-opacity:0.5"/>
</linearGradient>
<circle class="st2" cx="56" cy="114.4" r="5.3"/>
<path class="st3" d="M24.3,4.3h65.9c3.7,0,6.6,2.9,6.6,6.6v110.8c0,3.7-2.9,6.6-6.6,6.6H24.3c-3.7,0-6.6-2.9-6.6-6.6V10.9
	C17.7,7.2,20.6,4.3,24.3,4.3z"/>
</svg>
