<svg width="182" height="185" viewBox="0 0 182 185" fill="none" xmlns="http://www.w3.org/2000/svg">
<rect x="27.418" width="156.823" height="160.34" rx="4" transform="rotate(9.84601 27.418 0)" fill="url(#paint0_linear_652_2302)"/>
<g filter="url(#filter0_bi_652_2302)">
<path d="M1.26367 7.15234H164.203C166.413 7.15234 168.203 8.9432 168.203 11.1523V160.448C168.203 162.657 166.413 164.448 164.203 164.448H5.26367C3.05453 164.448 1.26367 162.657 1.26367 160.448V7.15234Z" fill="url(#paint1_linear_652_2302)" fill-opacity="0.5"/>
<path d="M1.76367 7.65234H164.203C166.136 7.65234 167.703 9.21935 167.703 11.1523V160.448C167.703 162.381 166.136 163.948 164.203 163.948H5.26367C3.33067 163.948 1.76367 162.381 1.76367 160.448V7.65234Z" stroke="white" stroke-opacity="0.1"/>
</g>
<rect opacity="0.4" x="15.2612" y="36.6406" width="138.816" height="38.5356" rx="2" fill="white"/>
<rect opacity="0.4" width="66.1028" height="61.0408" rx="2" transform="matrix(1 0 0 -1 15.3896 147.445)" fill="url(#paint2_linear_652_2302)"/>
<rect opacity="0.4" width="66.1028" height="61.0408" rx="2" transform="matrix(1 0 0 -1 88.1035 147.445)" fill="url(#paint3_linear_652_2302)"/>
<rect opacity="0.4" x="2" y="25.4883" width="166.94" height="2.70923" rx="1.35462" fill="white"/>
<rect opacity="0.8" x="140.736" y="14.1289" width="16.8065" height="4.97067" rx="2.48533" fill="white"/>
<rect opacity="0.8" x="106.635" y="14.1289" width="30.5522" height="4.97067" rx="2.48533" fill="#E0E9EF"/>
<circle cx="101.428" cy="16.6177" r="2.5396" fill="#D2E0E8"/>
<circle cx="18.5386" cy="16.6177" r="2.5396" fill="#D2E0E8"/>
<circle cx="24.856" cy="16.6177" r="2.5396" fill="#D2E0E8"/>
<circle cx="31.1753" cy="16.6177" r="2.5396" fill="#D2E0E8"/>
<defs>
<filter id="filter0_bi_652_2302" x="-21.7363" y="-15.8477" width="212.939" height="203.297" filterUnits="userSpaceOnUse" color-interpolation-filters="sRGB">
<feFlood flood-opacity="0" result="BackgroundImageFix"/>
<feGaussianBlur in="BackgroundImageFix" stdDeviation="11.5"/>
<feComposite in2="SourceAlpha" operator="in" result="effect1_backgroundBlur_652_2302"/>
<feBlend mode="normal" in="SourceGraphic" in2="effect1_backgroundBlur_652_2302" result="shape"/>
<feColorMatrix in="SourceAlpha" type="matrix" values="0 0 0 0 0 0 0 0 0 0 0 0 0 0 0 0 0 0 127 0" result="hardAlpha"/>
<feOffset dy="4"/>
<feGaussianBlur stdDeviation="9"/>
<feComposite in2="hardAlpha" operator="arithmetic" k2="-1" k3="1"/>
<feColorMatrix type="matrix" values="0 0 0 0 1 0 0 0 0 1 0 0 0 0 1 0 0 0 1 0"/>
<feBlend mode="normal" in2="shape" result="effect2_innerShadow_652_2302"/>
</filter>
<linearGradient id="paint0_linear_652_2302" x1="105.829" y1="0" x2="105.829" y2="160.34" gradientUnits="userSpaceOnUse">
<stop stop-color="#ADE388"/>
<stop offset="1" stop-color="#3D9700" stop-opacity="0.2"/>
</linearGradient>
<linearGradient id="paint1_linear_652_2302" x1="60.5004" y1="164.448" x2="58.5976" y2="22.8972" gradientUnits="userSpaceOnUse">
<stop stop-color="#B8C9E3" stop-opacity="0.7"/>
<stop offset="1" stop-color="white" stop-opacity="0.9"/>
</linearGradient>
<linearGradient id="paint2_linear_652_2302" x1="66.1028" y1="61.0408" x2="66.104" y2="-1.20053e-06" gradientUnits="userSpaceOnUse">
<stop stop-color="#FFFEFE"/>
<stop offset="1" stop-color="white" stop-opacity="0"/>
</linearGradient>
<linearGradient id="paint3_linear_652_2302" x1="66.1028" y1="61.0408" x2="66.104" y2="-1.20053e-06" gradientUnits="userSpaceOnUse">
<stop stop-color="#FFFEFE"/>
<stop offset="1" stop-color="white" stop-opacity="0"/>
</linearGradient>
</defs>
</svg>
