<svg width="66" height="66" viewBox="0 0 66 66" fill="none" xmlns="http://www.w3.org/2000/svg">
<g filter="url(#filter0_d_652_2209)">
<circle cx="33" cy="29" r="24" fill="url(#paint0_linear_652_2209)" fill-opacity="0.5" shape-rendering="crispEdges"/>
</g>
<path opacity="0.6" d="M40.9716 32.8671C40.4803 32.3555 39.8876 32.082 39.2595 32.082C38.6365 32.082 38.0388 32.3505 37.5272 32.8621L35.9265 34.4577C35.7948 34.3868 35.6631 34.3209 35.5365 34.2551C35.3541 34.1639 35.1819 34.0778 35.035 33.9866C33.5356 33.0343 32.1731 31.7933 30.8662 30.1876C30.233 29.3872 29.8075 28.7135 29.4985 28.0297C29.9139 27.6498 30.2989 27.2547 30.6737 26.8748C30.8155 26.733 30.9574 26.5861 31.0992 26.4443C32.1629 25.3805 32.1629 24.0028 31.0992 22.939L29.7164 21.5562C29.5593 21.3992 29.3972 21.2371 29.2453 21.075C28.9414 20.7609 28.6222 20.4367 28.293 20.1328C27.8016 19.6465 27.2141 19.3882 26.5961 19.3882C25.9781 19.3882 25.3804 19.6465 24.8739 20.1328L24.8637 20.1429L23.1415 21.8804C22.4931 22.5287 22.1234 23.3189 22.0423 24.2358C21.9208 25.7148 22.3564 27.0926 22.6907 27.9943C23.5113 30.2078 24.7371 32.2593 26.5657 34.4577C28.7843 37.1069 31.4538 39.1989 34.5031 40.6729C35.6682 41.225 37.2232 41.8784 38.9607 41.9899C39.067 41.9949 39.1785 42 39.2798 42C40.4499 42 41.4326 41.5796 42.2025 40.7438C42.2076 40.7337 42.2177 40.7286 42.2227 40.7185C42.4861 40.3993 42.7901 40.1106 43.1092 39.8016C43.327 39.594 43.5499 39.3761 43.7677 39.1482C44.2692 38.6265 44.5326 38.0186 44.5326 37.3956C44.5326 36.7675 44.2641 36.1647 43.7525 35.6582L40.9716 32.8671ZM42.785 38.201C42.7799 38.201 42.7799 38.206 42.785 38.201C42.5875 38.4137 42.3848 38.6062 42.167 38.819C41.8378 39.133 41.5035 39.4623 41.1894 39.832C40.6778 40.3791 40.075 40.6374 39.2848 40.6374C39.2089 40.6374 39.1278 40.6374 39.0518 40.6324C37.5474 40.5361 36.1494 39.9485 35.1008 39.4471C32.2338 38.0591 29.7164 36.0887 27.6244 33.5915C25.8971 31.5096 24.7422 29.5848 23.9773 27.5181C23.5062 26.2568 23.334 25.2742 23.41 24.3472C23.4606 23.7546 23.6886 23.2632 24.109 22.8428L25.8363 21.1155C26.0845 20.8825 26.3479 20.7559 26.6062 20.7559C26.9253 20.7559 27.1837 20.9483 27.3458 21.1104L27.361 21.1256C27.6699 21.4144 27.9637 21.7132 28.2727 22.0323C28.4298 22.1944 28.5918 22.3565 28.7539 22.5237L30.1368 23.9065C30.6737 24.4434 30.6737 24.9398 30.1368 25.4768C29.9899 25.6237 29.8481 25.7706 29.7012 25.9124C29.2757 26.348 28.8704 26.7532 28.4298 27.1483C28.4196 27.1585 28.4095 27.1635 28.4044 27.1737C27.9688 27.6093 28.0499 28.0348 28.141 28.3235L28.1562 28.3691C28.5159 29.2403 29.0224 30.0609 29.7923 31.0385L29.7974 31.0436C31.1954 32.7658 32.6695 34.1082 34.2954 35.1364C34.5031 35.2681 34.7159 35.3745 34.9185 35.4758C35.1008 35.567 35.2731 35.6531 35.42 35.7443C35.4402 35.7544 35.4605 35.7696 35.4807 35.7797C35.653 35.8658 35.8151 35.9064 35.9822 35.9064C36.4026 35.9064 36.666 35.643 36.7522 35.5569L38.4845 33.8245C38.6567 33.6523 38.9303 33.4446 39.2494 33.4446C39.5634 33.4446 39.8218 33.6421 39.9788 33.8144L39.9889 33.8245L42.7799 36.6155C43.3017 37.1322 43.3017 37.664 42.785 38.201ZM34.9742 23.709C36.3013 23.9318 37.5069 24.5599 38.4693 25.5224C39.4317 26.4848 40.0548 27.6903 40.2827 29.0175C40.3384 29.3518 40.6272 29.5848 40.9564 29.5848C40.9969 29.5848 41.0324 29.5797 41.0729 29.5747C41.4477 29.5139 41.6959 29.1593 41.6352 28.7845C41.3616 27.1787 40.6018 25.7148 39.4419 24.5549C38.2819 23.3949 36.818 22.6351 35.2123 22.3616C34.8374 22.3008 34.4879 22.549 34.4221 22.9188C34.3562 23.2885 34.5994 23.6482 34.9742 23.709ZM45.9762 28.5869C45.5254 25.9428 44.2793 23.5367 42.3646 21.622C40.4499 19.7073 38.0438 18.4612 35.3997 18.0104C35.0299 17.9446 34.6804 18.1978 34.6146 18.5676C34.5538 18.9425 34.802 19.292 35.1768 19.3578C37.5373 19.758 39.6901 20.8774 41.4022 22.5845C43.1143 24.2965 44.2286 26.4493 44.6288 28.8098C44.6845 29.1441 44.9732 29.3771 45.3025 29.3771C45.343 29.3771 45.3785 29.372 45.419 29.367C45.7888 29.3113 46.042 28.9567 45.9762 28.5869Z" fill="url(#paint1_linear_652_2209)"/>
<defs>
<filter id="filter0_d_652_2209" x="0" y="0" width="66" height="66" filterUnits="userSpaceOnUse" color-interpolation-filters="sRGB">
<feFlood flood-opacity="0" result="BackgroundImageFix"/>
<feColorMatrix in="SourceAlpha" type="matrix" values="0 0 0 0 0 0 0 0 0 0 0 0 0 0 0 0 0 0 127 0" result="hardAlpha"/>
<feOffset dy="4"/>
<feGaussianBlur stdDeviation="4.5"/>
<feComposite in2="hardAlpha" operator="out"/>
<feColorMatrix type="matrix" values="0 0 0 0 0.3875 0 0 0 0 0.3875 0 0 0 0 0.3875 0 0 0 0.25 0"/>
<feBlend mode="normal" in2="BackgroundImageFix" result="effect1_dropShadow_652_2209"/>
<feBlend mode="normal" in="SourceGraphic" in2="effect1_dropShadow_652_2209" result="shape"/>
</filter>
<linearGradient id="paint0_linear_652_2209" x1="26.0323" y1="53" x2="25.416" y2="9.80563" gradientUnits="userSpaceOnUse">
<stop stop-color="#B8C9E3" stop-opacity="0.7"/>
<stop offset="1" stop-color="white" stop-opacity="0.9"/>
</linearGradient>
<linearGradient id="paint1_linear_652_2209" x1="33.9299" y1="40.0465" x2="33.9299" y2="19.6744" gradientUnits="userSpaceOnUse">
<stop stop-color="#070FD5"/>
<stop offset="1" stop-color="#06CDF9"/>
</linearGradient>
</defs>
</svg>
