<svg width="66" height="66" viewBox="0 0 66 66" fill="none" xmlns="http://www.w3.org/2000/svg">
<g filter="url(#filter0_d_652_2212)">
<circle cx="33" cy="29" r="24" fill="url(#paint0_linear_652_2212)" fill-opacity="0.5" shape-rendering="crispEdges"/>
</g>
<g opacity="0.8">
<path d="M43.8204 22H23.1795C22.5308 22 22 22.5308 22 23.1795V36.1538C22 36.8025 22.5308 37.3333 23.1795 37.3333H43.8205C44.4692 37.3333 45 36.8026 45 36.1538V23.1795C45 22.5308 44.4692 22 43.8204 22ZM43.3778 22.8846L34.1785 29.7846C34.0131 29.9105 33.7592 29.9893 33.4999 29.9881C33.2407 29.9893 32.9869 29.9105 32.8214 29.7846L23.6221 22.8846H43.3778ZM38.4638 30.2399L43.4767 36.4322C43.4817 36.4384 43.4878 36.4432 43.4932 36.4488H23.5068C23.5121 36.4429 23.5183 36.4384 23.5233 36.4322L28.5361 30.2399C28.5727 30.1947 28.6 30.1428 28.6164 30.0871C28.6329 30.0314 28.6383 29.973 28.6322 29.9152C28.626 29.8574 28.6086 29.8014 28.5809 29.7503C28.5531 29.6993 28.5155 29.6542 28.4704 29.6177C28.2805 29.4641 28.0021 29.4932 27.8485 29.6832L22.8846 35.815V23.4375L32.291 30.4922C32.6445 30.7556 33.0747 30.8715 33.4999 30.8726C33.9245 30.8717 34.355 30.7558 34.7088 30.4922L44.1152 23.4375V35.8149L39.1515 29.6832C38.9978 29.4933 38.7192 29.4641 38.5296 29.6177C38.3394 29.7713 38.3102 30.05 38.4638 30.2399Z" fill="url(#paint1_linear_652_2212)"/>
</g>
<defs>
<filter id="filter0_d_652_2212" x="0" y="0" width="66" height="66" filterUnits="userSpaceOnUse" color-interpolation-filters="sRGB">
<feFlood flood-opacity="0" result="BackgroundImageFix"/>
<feColorMatrix in="SourceAlpha" type="matrix" values="0 0 0 0 0 0 0 0 0 0 0 0 0 0 0 0 0 0 127 0" result="hardAlpha"/>
<feOffset dy="4"/>
<feGaussianBlur stdDeviation="4.5"/>
<feComposite in2="hardAlpha" operator="out"/>
<feColorMatrix type="matrix" values="0 0 0 0 0.3875 0 0 0 0 0.3875 0 0 0 0 0.3875 0 0 0 0.25 0"/>
<feBlend mode="normal" in2="BackgroundImageFix" result="effect1_dropShadow_652_2212"/>
<feBlend mode="normal" in="SourceGraphic" in2="effect1_dropShadow_652_2212" result="shape"/>
</filter>
<linearGradient id="paint0_linear_652_2212" x1="26.0323" y1="53" x2="25.416" y2="9.80563" gradientUnits="userSpaceOnUse">
<stop stop-color="#B8C9E3" stop-opacity="0.7"/>
<stop offset="1" stop-color="white" stop-opacity="0.9"/>
</linearGradient>
<linearGradient id="paint1_linear_652_2212" x1="33.4289" y1="36.0853" x2="33.4289" y2="23.0698" gradientUnits="userSpaceOnUse">
<stop stop-color="#070FD5"/>
<stop offset="1" stop-color="#06CDF9"/>
</linearGradient>
</defs>
</svg>
